<svg width="1409" height="303" viewBox="0 0 1409 303" fill="none" xmlns="http://www.w3.org/2000/svg">
<path fill-rule="evenodd" clip-rule="evenodd" d="M600.167 8.27061C600.323 13.6751 600.689 16.7504 601.233 17.2944C601.854 17.9011 602.073 21.9387 602.073 32.8523C602.073 44.3517 601.889 47.5386 601.233 47.3224C600.767 47.1759 600.315 45.6976 600.203 43.9751L599.998 40.8998H594.07V65.1328L597.069 75.3699L600.068 85.6001V250.88L596.54 251.319C594.599 251.556 592.574 251.689 592.037 251.612C591.508 251.542 590.174 251.521 589.073 251.584L587.076 251.689L588.904 252.665C590.696 253.627 590.739 253.788 590.739 259.555V265.461H583.406V257.044C583.406 249.387 583.533 248.53 584.768 247.484C586.307 246.18 585.968 245.05 584.034 245.05C582.898 245.05 582.743 244.569 582.743 241.145C582.743 237.686 582.948 237.079 584.542 235.838C586.137 234.597 586.25 234.283 585.488 233.076C585.015 232.33 584.486 229.771 584.303 227.379C584.119 224.994 583.696 222.532 583.357 221.905C582.319 219.994 582.665 218.871 584.408 218.439C585.326 218.209 586.074 217.735 586.074 217.379C586.074 217.023 585.326 216.73 584.408 216.73C582.821 216.73 582.743 216.549 582.743 212.818V208.906L585.862 208.446C589.003 207.979 592.383 205.44 591.861 203.941C591.579 203.125 588.205 203.076 584.62 203.829L582.171 204.345L582.446 197.944C582.595 194.422 583.06 191.131 583.477 190.635C584.041 189.966 584.041 189.499 583.491 188.836C582.679 187.874 582.291 180.05 581.748 153.725L581.409 137.141L582.912 136.932C584.994 136.639 584.853 134.75 582.743 134.729C581.324 134.715 581.07 134.401 581.035 132.602C580.993 130.112 580.245 129.129 579.412 130.461C578.516 131.897 577.746 130.656 577.746 127.776C577.746 124.478 576.511 124.373 576.081 127.644C575.65 130.837 575.036 129.833 574.437 124.973C573.823 119.973 572.517 116.305 571.345 116.305C570.612 116.305 570.463 117.309 570.647 121.019C570.943 127.065 570.357 129.805 568.763 129.805C567.273 129.805 566.744 128.536 566.744 124.945C566.744 123.418 566.448 121.869 566.088 121.514C565.65 121.081 565.65 120.084 566.088 118.585C567.097 115.112 566.906 114.345 564.853 113.578C563.208 112.971 562.856 112.344 562.157 108.829C561.712 106.597 561.091 104.777 560.774 104.777C560.463 104.777 559.863 106.925 559.454 109.554C558.579 115.091 558.078 116.214 556.349 116.542C554.634 116.869 554.105 117.881 554.528 119.98C554.726 120.949 554.556 121.946 554.154 122.19C553.752 122.434 553.42 124.254 553.42 126.228C553.42 129.624 553.349 129.77 552.115 129.01C551.402 128.571 550.682 128.341 550.52 128.508C550.357 128.676 549.863 132.671 549.419 137.379C548.974 142.086 548.473 146.158 548.311 146.43C547.873 147.142 546.751 147.037 546.751 146.291C546.751 145.935 545.234 143.104 543.378 140.001C540.71 135.538 540.082 133.962 540.406 132.511C540.682 131.263 540.484 130.398 539.785 129.826C539.052 129.227 538.755 127.769 538.755 124.784C538.755 122.476 538.466 120.586 538.113 120.586C536.758 120.586 535.96 123.578 535.848 129.052C535.77 132.929 535.403 135.266 534.69 136.388C534.111 137.295 531.726 141.367 529.397 145.447C527.061 149.52 524.866 152.853 524.521 152.853C524.125 152.853 524.062 142.407 524.351 125.028C524.739 101.821 524.979 97.0855 525.791 96.4719C527.301 95.3421 527.04 93.3617 525.438 93.7731C524.281 94.073 524.125 93.808 524.203 91.695C524.26 90.363 523.97 88.6615 523.568 87.9153C523.166 87.1692 522.813 85.098 522.785 83.3198C522.693 76.7228 522.538 76.1301 520.921 76.1858C519.489 76.2347 519.432 76.0115 519.418 70.5861C519.411 63.7799 518.995 61.9738 517.421 61.9738C515.741 61.9738 515.431 63.2499 515.431 70.1747C515.431 78.1105 514.965 80.4118 513.349 80.4118C511.86 80.4118 511.684 81.6113 513.102 82.1482C514.76 82.7828 514.224 84.4355 512.1 85.2235C509.425 86.2208 509.573 87.0018 512.432 87.0018C513.716 87.0018 514.76 87.0715 514.76 87.1622C514.753 87.2528 514.302 88.78 513.758 90.5583C513.215 92.3365 512.763 96.3394 512.756 99.4496C512.742 106.179 512.058 107.888 510.533 104.98C509.969 103.892 509.672 102.364 509.884 101.576C510.18 100.454 510.032 100.238 509.178 100.558C508.585 100.788 508.098 100.642 508.098 100.238C508.098 99.8401 508.416 99.5123 508.804 99.5123C509.192 99.5123 509.326 99.2125 509.101 98.8498C508.875 98.4872 508.106 98.1943 507.393 98.1943C506.68 98.1943 506.101 97.8945 506.101 97.5318C506.101 97.1762 506.405 96.8763 506.765 96.8763C508.021 96.8763 507.435 95.7745 505.784 95.0283C504.704 94.5402 504.266 93.9335 504.52 93.278C504.746 92.6992 504.457 92.1064 503.836 91.8693C503.25 91.6531 502.77 90.9349 502.77 90.2933C502.77 89.6448 502.29 88.9335 501.698 88.7103C501.098 88.4802 500.794 87.8805 501.006 87.3296C501.232 86.7647 500.851 86.0743 500.103 85.6838C499.397 85.3072 498.98 84.5959 499.171 84.0938C499.369 83.5917 499.249 83.006 498.903 82.7968C498.557 82.5875 497.414 80.7047 496.355 78.6196C495.304 76.5275 494.217 74.7144 493.942 74.5959C493.666 74.4773 493.441 73.8567 493.441 73.2221C493.441 72.5805 492.671 71.7158 491.733 71.2974C490.801 70.872 490.215 70.2374 490.434 69.8887C490.653 69.5331 488.867 66.2207 486.468 62.5247C483.525 57.9919 482.318 55.5791 482.77 55.1328C483.772 54.1425 483.582 51.4507 482.481 51.0323C481.958 50.8301 481.33 49.805 481.097 48.745C480.759 47.2248 481.105 46.2345 482.721 44.0588C484.167 42.1201 484.774 40.5581 484.774 38.7938C484.774 35.8161 483.186 35.3419 481.98 37.9569C481.429 39.1564 481.062 39.3865 480.681 38.7798C480.258 38.1104 479.884 38.1034 478.832 38.7449C477.138 39.784 476.941 39.4144 475.995 33.3962C474.852 26.1298 473.716 26.8342 473.031 35.2373C472.601 40.5023 473.419 43.48 475.452 44.003C476.56 44.2889 476.778 44.9095 476.778 47.7617C476.778 49.6376 476.447 51.4995 476.044 51.897C475.24 52.692 475.833 55.3908 476.807 55.3908C477.378 55.3908 475.727 58.6614 472.488 63.9473C471.711 65.2165 470.483 67.3992 469.764 68.7939C469.037 70.1956 468.07 71.4857 467.611 71.667C467.159 71.8483 466.778 72.3853 466.778 72.8595C466.778 73.3337 465.713 75.1119 464.4 76.8065C463.094 78.5011 462.191 80.3072 462.389 80.8302C462.622 81.4299 462.092 82.0436 460.935 82.5108C459.453 83.1175 459.34 83.3058 460.321 83.5359C461.274 83.7591 461.358 84.0101 460.737 84.7493C460.307 85.2654 459.538 85.6838 459.037 85.6838C458.528 85.6838 458.119 86.2417 458.119 86.9251C458.119 87.6155 457.667 88.3477 457.117 88.5569C455.903 89.0172 455.797 90.7117 456.955 91.172C457.413 91.3533 457.159 91.5276 456.397 91.5555C454.541 91.6253 453.969 92.2877 454.866 93.3477C455.43 94.0241 455.19 94.3728 453.786 94.9028C452.325 95.4537 452.127 95.7606 452.756 96.5137C453.377 97.2459 453.271 97.5876 452.262 98.1176C451.549 98.4942 450.476 100.398 449.827 102.441C447.688 109.157 446.842 108.104 446.404 98.1943C446.228 94.1985 445.79 90.1748 445.437 89.2542C444.555 86.953 444.52 87.0018 446.955 86.9809L449.121 86.96L446.785 85.0492C444.795 83.4104 444.626 83.0757 445.621 82.6922C447.103 82.1273 447.11 81.1231 445.649 80.0631C444.746 79.4076 444.379 77.4829 443.856 70.607C443.292 63.1872 443.045 61.9738 442.071 61.9738C440.568 61.9738 440.144 63.8497 440.13 70.607L440.123 76.2765L438.458 75.9627C436.644 75.621 436.75 75.1677 436.467 84.3658C436.418 85.9976 436.058 87.9223 435.663 88.6476C435.275 89.3728 435.098 90.907 435.275 92.0576C435.564 93.9265 435.444 94.1148 434.195 93.794C432.558 93.3686 432.318 94.596 433.729 96.165C434.484 97.0088 434.76 102.56 435.155 125.028C435.465 142.846 435.409 152.853 435 152.853C434.64 152.853 432.177 149.003 429.509 144.289C426.848 139.582 424.456 135.6 424.195 135.44C423.934 135.28 423.659 132.637 423.595 129.568C423.468 123.738 422.6 120.217 421.464 120.914C421.097 121.137 420.8 123.034 420.8 125.133C420.8 128.069 420.497 129.206 419.502 130.098C418.486 131.012 418.366 131.507 418.93 132.406C419.516 133.334 418.923 134.84 415.825 140.301C413.658 144.115 411.739 146.8 411.414 146.472C410.927 145.998 409.495 133.501 409.474 129.589C409.466 128.606 409.114 128.459 407.561 128.794L405.656 129.206L405.973 125.97C406.171 123.975 406.001 122.56 405.543 122.274C405.14 122.03 404.802 120.796 404.802 119.54C404.802 117.727 404.47 117.134 403.178 116.646C400.97 115.816 400.137 114.038 400.137 110.147C400.137 103.906 398.655 102.922 397.427 108.348C396.509 112.378 396.326 112.713 394.47 113.759C393.383 114.373 393.171 115.091 393.319 117.706C393.418 119.457 393.284 121.346 393.023 121.89C392.762 122.441 392.536 124.185 392.515 125.768C392.487 127.783 392.12 128.878 391.287 129.394C389.424 130.558 388.775 128.829 388.845 122.888C388.916 115.865 388.93 115.977 387.949 115.977C387.074 115.977 384.808 122.176 384.808 124.575C384.808 125.649 384.505 125.803 383.072 125.447C381.442 125.042 381.357 125.133 381.724 126.918C382.141 128.934 380.306 132.274 379.678 130.628C379 128.843 378.055 129.938 378.259 132.274C378.457 134.54 378.33 134.757 376.643 134.952C374.321 135.217 374.166 137.051 376.467 137.051H378.125L377.794 150.384C376.982 183.446 376.784 187.979 376.17 188.718C375.803 189.15 375.761 189.771 376.079 190.105C376.389 190.447 376.806 193.788 377.003 197.539L377.363 204.359L375.253 203.906C374.096 203.662 372.021 203.292 370.645 203.09C368.323 202.755 368.146 202.846 368.146 204.38C368.146 206.472 369.007 207.142 373.15 208.279L376.481 209.199L376.678 212.616C376.869 215.81 376.77 216.061 375.154 216.458C373.136 216.961 373.27 218.286 375.366 218.585C376.918 218.816 377.314 220.58 376.086 221.793C375.69 222.191 375.232 224.394 375.084 226.703C374.928 229.004 374.455 231.73 374.032 232.756C373.348 234.436 373.446 234.771 375.006 236.047C376.446 237.226 376.777 238.111 376.918 241.096C377.088 244.597 377.031 244.722 375.288 244.924C373.157 245.175 372.91 246.675 374.829 247.693C376.1 248.362 376.17 248.941 376.001 257.051L375.81 265.699H371.477L367.151 265.692L366.812 184.624C366.481 103.864 366.474 103.55 365.098 101.73C363.714 99.9028 360.101 98.4802 358.443 99.1078C357.927 99.3031 357.476 100.754 357.356 102.602C357.158 105.635 357.066 105.768 355.154 105.768C353.248 105.768 353.143 105.628 352.952 102.699C352.733 99.3589 352.324 98.9963 348.824 99.1078C346.523 99.1776 346.488 99.2264 346.283 102.309C346.107 105.021 345.86 105.482 344.406 105.844C342.19 106.395 341.618 105.698 341.364 102.148L341.159 99.1846H335.443L335.302 124.206L335.161 149.234L243.339 149.401C162.131 149.547 151.468 149.45 151.129 148.571C150.459 146.849 148.461 147.483 142.802 151.228C139.774 153.229 136.605 155.043 135.758 155.252C134.919 155.461 134.192 155.67 134.156 155.719C134.114 155.775 133.698 166.04 133.232 178.536C132.759 191.033 132.11 202.288 131.778 203.55C131.094 206.166 128.193 208.411 123.959 209.61C120.232 210.656 119.562 211.284 119.562 213.725C119.562 215.301 118.983 216.34 117.233 217.867L114.897 219.91V273.362H109.569V256.012C109.569 244.862 109.837 237.902 110.317 236.535C110.875 234.966 110.875 234.22 110.317 233.669C108.814 232.184 109.576 226.612 111.284 226.612C111.778 226.612 112.505 226.019 112.9 225.294C113.521 224.143 113.408 223.976 112.018 223.976C110.105 223.976 110.268 225.406 109.83 204.366C109.513 188.781 109.534 188.334 110.938 186.382C111.728 185.287 112.272 184.29 112.138 184.171C112.011 184.052 110.402 183.536 108.567 183.034L105.236 182.121L105.038 178.425C104.848 174.833 104.897 174.715 106.873 174.031C109.435 173.153 109.505 171.953 107 171.953C105.151 171.953 105.081 171.821 104.657 167.832C104.311 164.561 104.424 163.571 105.229 162.985C106.57 162.009 106.499 160.928 105.031 160.022C104.17 159.492 103.909 158.711 104.114 157.316C104.361 155.677 104.205 155.398 103.154 155.607C102.236 155.796 101.954 156.34 102.095 157.658C102.222 158.808 101.919 159.603 101.263 159.847C100.006 160.322 99.9147 162.469 101.121 163.195C101.608 163.481 102.18 164.192 102.392 164.764C102.723 165.67 101.982 165.824 97.0141 165.907C90.6838 166.012 84.2405 164.596 84.2405 163.111C84.2405 162.616 84.6922 162.044 85.2427 161.835C86.6329 161.305 86.4918 159.617 84.9957 158.829C84.1206 158.362 83.8453 157.679 84.0782 156.493C84.2617 155.545 83.3443 151.591 81.9681 147.379C78.9829 138.25 74.4098 130.81 69.8649 127.664C68.517 126.737 67.1761 125.81 65.8423 124.868C64.5014 123.906 63.3582 118.355 63.3017 112.553C63.2664 109.436 62.9277 107.162 62.4195 106.66C61.9608 106.207 61.5868 105.203 61.5868 104.436C61.5868 103.662 60.8458 102.344 59.9424 101.507C58.7074 100.363 58.2981 99.3031 58.3052 97.2738C58.3122 90.3979 58.2981 90.2933 57.0137 90.2933C56.0116 90.2933 55.694 90.9628 55.3623 93.7522C55.1365 95.649 55.1223 97.8456 55.3341 98.6337C55.6093 99.6727 55.2635 100.349 54.0496 101.13C53.0475 101.786 52.2218 103.104 51.9607 104.464C51.7278 105.705 51.0362 106.995 50.4222 107.33C49.4907 107.853 49.4413 108.215 50.1188 109.687C51.262 112.162 51.1421 116.953 49.907 117.957C49.3566 118.418 48.9543 119.415 49.0178 120.182C49.2931 123.578 48.8414 124.373 45.1716 126.869C41.4878 129.373 37.4722 133.996 35.3268 138.181C33.9506 140.879 30.9301 149.129 30.9301 150.196C30.9301 150.642 30.4573 151.995 29.8786 153.195C29.067 154.889 28.9964 155.698 29.5681 156.758C30.2103 157.937 30.0762 158.229 28.6224 158.885C26.5405 159.826 26.5052 160.315 28.4177 161.57C32.1722 164.031 25.2138 166.347 16.1593 165.649L10.3018 165.196L11.9532 163.92C13.8234 162.462 14.0351 161.277 12.6378 160.126C12.1085 159.694 11.5862 158.425 11.4733 157.302C11.1698 154.303 9.60314 154.136 9.60314 157.1C9.60314 158.606 9.23617 159.617 8.60101 159.861C7.39422 160.315 7.33777 162.002 8.48104 163.488C9.0315 164.199 9.19382 165.782 8.96093 168.097C8.62924 171.368 8.46692 171.633 6.73084 171.835C4.51487 172.086 4.67013 173.397 6.9849 173.941C8.47398 174.283 8.60101 174.624 8.60101 178.23V182.149L4.69836 183.174L0.795704 184.192L2.56001 186.263L4.31727 188.327L4.04909 203.683C3.73857 221.047 3.38571 223.976 1.572 223.976C-0.524 223.976 -0.524 225.189 1.572 226.263C4.01381 227.512 4.71953 229.841 3.63977 233.09C3.05402 234.855 3.03285 235.998 3.55508 237.351C4.4937 239.792 4.5431 273.362 3.60449 273.362C3.18105 273.362 2.93405 278.746 2.93405 288.181V303L704.678 302.833L1406.42 302.672L1406.65 273.781C1406.86 246.152 1406.92 244.855 1408.15 243.962C1410 242.63 1408.86 241.249 1404.45 239.506L1400.8 238.055L1400.63 203.439C1400.48 173.25 1400.59 168.725 1401.46 168.006C1402.84 166.87 1402.72 165.587 1401.19 165.189C1399.54 164.764 1399.02 159.687 1398.89 142.923C1398.81 131.925 1398.93 130.447 1400.11 128.292L1401.41 125.9L1399.94 124.352C1399.13 123.501 1398.47 122.392 1398.47 121.883C1398.47 121.374 1397.71 120.356 1396.8 119.624C1395.26 118.39 1395.18 118.076 1395.84 115.775C1396.41 113.78 1396.33 112.602 1395.46 110.014C1394.54 107.281 1394.03 106.681 1392.25 106.228C1390.16 105.698 1390.13 105.628 1389.94 101.186C1389.83 98.7034 1390.03 96.3812 1390.4 96.0186C1390.85 95.5862 1390.72 94.7006 1390.03 93.3756C1389.06 91.5276 1388.94 91.4718 1388.31 92.6504C1387.94 93.3407 1387.17 94.2822 1386.6 94.7354C1385.65 95.4746 1385.67 95.5583 1386.68 95.5583C1387.64 95.5583 1387.8 96.2975 1387.8 100.517V105.468L1385.78 105.872C1382.88 106.444 1381.59 109.254 1381.69 114.784C1381.76 118.013 1381.52 119.359 1380.83 119.743C1380.3 120.035 1379.1 121.702 1378.16 123.452L1376.44 126.639L1377.78 128.78C1378.52 129.952 1378.98 131.068 1378.79 131.249C1378.6 131.43 1374.49 130.475 1369.63 129.122C1328.77 117.741 1320.18 115.224 1319.72 114.498C1318.94 113.299 1319.04 106.095 1319.83 106.095C1320.81 106.095 1320.63 104.826 1319.5 103.696C1318.61 102.818 1318.38 102.825 1317.45 103.745C1316.87 104.317 1316.12 104.777 1315.78 104.777C1315.44 104.777 1315.16 105.077 1315.16 105.44C1315.16 105.802 1315.74 106.095 1316.43 106.095C1317.59 106.095 1317.67 106.479 1317.35 110.21C1317.15 112.476 1316.79 114.554 1316.54 114.826C1316.29 115.098 1312.5 116.332 1308.13 117.56C1277.47 126.172 1247.84 134.366 1245.96 134.75C1244.03 135.14 1243.8 135.391 1244.25 136.618C1244.98 138.627 1245.4 221.807 1244.83 253.446L1244.37 279.952H1237.19V233.341C1237.19 192.546 1237.32 186.549 1238.21 185.294C1239.01 184.157 1239.26 181.549 1239.35 173.125L1239.47 162.4L1237 162.197L1234.52 161.995V169.401L1232.35 169.192C1230.24 168.99 1230.19 168.906 1229.99 165.489L1229.79 161.995L1227.38 162.197L1224.97 162.4L1224.92 165.691C1224.86 168.899 1224.81 168.99 1222.86 168.99C1220.91 168.99 1220.86 168.913 1220.86 165.691V162.4L1215.93 161.995L1215.74 165.489C1215.54 168.725 1215.4 168.99 1213.86 168.99C1212.32 168.99 1212.19 168.753 1212.14 165.691L1212.09 162.4L1206.81 162.009L1206.84 165.496C1206.86 168.822 1206.78 168.997 1205.04 169.192C1203.22 169.401 1203.2 169.352 1203.2 165.698V161.995L1198.2 162.4L1198 165.9C1197.8 169.269 1197.73 169.387 1196 169.192C1194.28 168.997 1194.21 168.836 1194.35 165.531L1194.49 162.072H1189.28L1189.07 165.531L1188.88 168.99H1184.2L1184.15 165.691L1184.1 162.4L1181.69 162.197L1179.28 161.995L1179.08 165.489C1178.89 168.725 1178.75 168.99 1177.21 168.99C1175.66 168.99 1175.53 168.725 1175.34 165.489L1175.13 161.995L1170.32 162.4L1170.27 165.691C1170.22 168.753 1170.1 168.99 1168.54 168.99C1167 168.99 1166.86 168.725 1166.68 165.531L1166.48 162.072H1161.22V165.74C1161.22 169.345 1161.19 169.401 1159.38 169.192C1157.65 168.997 1157.55 168.794 1157.55 165.691V162.4L1152.62 161.995L1152.42 165.489C1152.23 168.759 1152.1 169.004 1150.39 169.192C1148.58 169.401 1148.55 169.352 1148.55 165.698V161.995L1143.55 162.4V165.691C1143.55 168.927 1143.52 168.99 1141.39 169.192L1139.22 169.401V162.072H1133.69L1134.15 173.432C1134.41 179.68 1134.9 184.889 1135.25 185.008C1135.65 185.147 1135.89 203.027 1135.89 232.588V279.952H1125.23V260.873C1125.23 242.477 1125.28 241.779 1126.56 241.096C1127.29 240.705 1127.89 240.078 1127.89 239.694C1127.89 239.311 1127.29 238.844 1126.56 238.655C1125.26 238.32 1125.23 237.756 1125.23 219.039C1125.23 202.546 1125.37 199.652 1126.25 198.934C1127.15 198.195 1127.12 197.958 1125.91 196.849C1124.63 195.67 1124.56 194.834 1124.56 180.859C1124.56 164.924 1124.32 166.026 1128.55 162.511C1129.73 161.528 1130.55 160.356 1130.37 159.896C1130.19 159.422 1119.09 156.214 1104.81 152.504L1079.57 145.935H918.294L893.064 152.49C875.957 156.932 867.714 159.359 867.453 160.022C867.249 160.566 867.376 161.103 867.75 161.228C868.124 161.354 869.528 162.448 870.869 163.662L873.311 165.872V180.545C873.311 192.999 873.148 195.398 872.259 196.375C871.448 197.26 871.37 197.825 871.927 198.85C872.393 199.715 872.647 206.758 872.647 218.913C872.647 237.519 872.633 237.651 871.165 238.613L869.69 239.583L871.165 240.364C872.619 241.131 872.647 241.382 872.647 254.52C872.647 261.87 872.45 271.047 872.21 274.911L871.779 281.926H861.313L861.299 271.884C861.292 266.361 861.215 253.244 861.137 242.742L860.982 223.648L858.9 223.446C857.065 223.272 856.761 222.951 856.409 220.81C856.183 219.471 855.992 216.061 855.992 213.23L855.985 208.083L854.15 208.292C852.711 208.453 852.273 208.885 852.111 210.308C851.899 212.086 851.659 212.288 849.655 212.288C847.651 212.288 847.404 212.086 847.199 210.308C847.03 208.885 846.592 208.453 845.152 208.292C843.522 208.104 843.325 208.292 843.325 210.029C843.325 211.584 842.965 212.065 841.56 212.414C839.514 212.923 838.857 212.428 838.547 210.147C838.363 208.809 837.954 208.502 836.331 208.502C834.637 208.502 834.284 208.795 833.988 210.475C833.698 212.149 833.346 212.449 831.659 212.449C829.972 212.449 829.619 212.149 829.323 210.475C829.034 208.795 828.681 208.502 826.987 208.502C825.244 208.502 825.011 208.718 825.11 210.252C825.201 211.626 824.863 212.093 823.515 212.428C821.518 212.923 820.861 212.414 820.551 210.147C820.367 208.809 819.958 208.502 818.335 208.502C816.641 208.502 816.295 208.795 815.999 210.475C815.745 211.933 815.237 212.511 814.072 212.672C812.301 212.923 811.355 211.877 811.341 209.652C811.334 208.446 810.96 208.167 809.33 208.167C807.558 208.167 807.333 208.39 807.333 210.147C807.333 211.954 807.142 212.121 805.046 212.121C803.042 212.121 802.731 211.891 802.548 210.308C802.371 208.781 802.018 208.502 800.339 208.502C798.567 208.502 798.313 208.746 798.13 210.643C797.904 212.958 796.175 213.585 794.735 211.87C793.888 210.859 794.114 171.012 795.004 165.14C795.533 161.591 795.011 160.614 792.865 161.172C791.92 161.416 791.341 162.156 791.207 163.292C791.066 164.527 790.621 165.036 789.675 165.036C788.631 165.036 788.37 164.638 788.469 163.229C788.56 161.793 788.243 161.333 786.916 161.005C784.961 160.517 784.206 161.117 783.895 163.383C783.776 164.303 783.161 165.119 782.505 165.245C781.609 165.412 781.341 165.015 781.341 163.474C781.341 161.172 780.557 160.496 778.595 161.11C777.311 161.514 777.226 161.87 777.629 165.266C777.876 167.316 778.137 170.914 778.207 173.264L778.341 177.546H776.013C773.797 177.546 773.669 177.421 773.472 175.078C773.267 172.679 773.19 172.609 770.642 172.609C768.017 172.609 768.017 172.616 768.017 175.245C768.017 177.811 767.96 177.874 765.681 177.874C763.401 177.874 763.345 177.811 763.345 175.245V172.609H757.353V175.245C757.353 177.811 757.297 177.874 755.017 177.874C752.738 177.874 752.688 177.811 752.688 175.245V172.609H746.019V175.245C746.019 177.804 745.956 177.874 743.726 177.874C741.559 177.874 741.425 177.741 741.227 175.405C741.03 172.999 740.959 172.937 738.355 172.937C735.751 172.937 735.687 172.992 735.483 175.447C735.285 177.832 735.172 177.944 733.147 177.748C731.213 177.567 731.008 177.323 730.818 175.043L730.606 172.539L727.819 172.734C725.109 172.93 725.024 173.013 724.819 175.447C724.622 177.832 724.509 177.944 722.483 177.748C720.387 177.553 720.359 177.497 720.161 173.655C720.049 171.514 720.26 168.997 720.627 168.055C721.001 167.121 721.389 165.315 721.495 164.045C721.686 161.884 721.566 161.73 719.526 161.535C717.515 161.347 717.367 161.465 717.367 163.348C717.367 164.903 717.07 165.363 716.075 165.363C715.102 165.363 714.727 164.833 714.572 163.223C714.403 161.458 714.057 161.047 712.575 160.879C710.987 160.698 710.768 160.921 710.578 162.853C710.415 164.534 710.02 165.084 708.87 165.245C707.593 165.426 707.367 165.154 707.367 163.432C707.367 161.556 707.197 161.416 704.988 161.416C703.034 161.416 702.674 161.619 702.977 162.567C704.332 166.884 705.123 193.599 704.262 206.389C703.859 212.449 703.746 212.832 702.434 212.644C701.474 212.511 700.938 211.835 700.705 210.475C700.415 208.815 700.02 208.467 698.199 208.292C696.188 208.097 696.04 208.23 696.04 210.092C696.04 211.668 695.687 212.184 694.41 212.497C692.194 213.048 691.375 212.4 691.375 210.106C691.375 208.397 691.142 208.167 689.392 208.167C687.719 208.167 687.324 208.502 686.851 210.308C686.414 211.981 685.941 212.449 684.671 212.449C683.393 212.449 682.984 212.03 682.709 210.475C682.412 208.795 682.059 208.502 680.373 208.502C678.693 208.502 678.34 208.788 678.164 210.308C678.016 211.612 677.479 212.232 676.258 212.539C674.367 213.007 673.407 212.044 673.386 209.652C673.379 208.446 673.005 208.167 671.382 208.167C669.618 208.167 669.378 208.397 669.378 210.071C669.378 211.584 669.018 212.072 667.62 212.414C665.574 212.923 664.917 212.428 664.607 210.147C664.423 208.802 664.014 208.502 662.384 208.502C660.718 208.502 660.351 208.788 660.175 210.245C660.048 211.375 659.469 212.114 658.545 212.358C656.795 212.811 655.327 211.716 655.856 210.357C656.315 209.171 654.988 208.195 652.885 208.181C651.664 208.174 651.389 208.537 651.389 210.133C651.389 211.668 651.029 212.184 649.758 212.497C647.542 213.048 646.724 212.4 646.724 210.106C646.724 208.481 646.456 208.167 645.051 208.167H643.386V223.313H638.058V225.949C638.058 228.32 637.888 228.585 636.392 228.585C634.931 228.585 634.727 228.3 634.727 226.291C634.727 224.408 634.43 223.927 633.096 223.599C630.753 223.014 630.062 223.711 630.062 226.647C630.062 228.076 629.758 229.241 629.391 229.241C628.954 229.241 628.728 204.806 628.728 157.26V85.2724L631.657 75.084C634.727 64.4354 634.938 62.5875 634.797 48.2708L634.727 40.83L631.558 41.0323L628.396 41.2275L628.192 44.3586C628.079 46.0811 627.705 47.4898 627.359 47.4898C627.013 47.4898 626.717 47.1132 626.702 46.6599C626.463 38.6334 626.928 18.0545 627.366 17.2455C627.69 16.6458 628.036 12.6151 628.128 8.27758L628.304 0.397493L625.185 0.202231L622.066 0V7.97075H620.062C617.923 7.97075 617.867 7.86614 617.782 3.36124L617.733 0.397493L614.232 0.202231L610.732 0V7.97075H606.738V0.0697353H599.934L600.167 8.27061ZM491.775 73.8288C492.001 74.1914 492.318 74.4843 492.481 74.4843C492.643 74.4843 492.77 74.1914 492.77 73.8288C492.77 73.4662 492.453 73.1663 492.064 73.1663C491.676 73.1663 491.549 73.4662 491.775 73.8288ZM383.037 127.525C382.825 128.083 382.811 128.71 383.016 128.913C383.602 129.485 384.808 128.508 384.808 127.462C384.808 126.193 383.538 126.242 383.037 127.525Z" fill="#A2CBDF"/>
</svg>
