<svg width="20" height="22" viewBox="0 0 20 22" fill="none" xmlns="http://www.w3.org/2000/svg">
<g id="Group">
<path id="Vector" fill-rule="evenodd" clip-rule="evenodd" d="M10.5932 21.2579L10.5822 21.2599L10.5112 21.2949L10.4912 21.2989L10.4772 21.2949L10.4062 21.2599C10.3955 21.2566 10.3875 21.2583 10.3822 21.2649L10.3782 21.2749L10.3612 21.7029L10.3662 21.7229L10.3762 21.7359L10.4802 21.8099L10.4952 21.8139L10.5072 21.8099L10.6112 21.7359L10.6232 21.7199L10.6272 21.7029L10.6102 21.2759C10.6075 21.2653 10.6018 21.2593 10.5932 21.2579ZM10.8582 21.1449L10.8452 21.1469L10.6602 21.2399L10.6502 21.2499L10.6472 21.2609L10.6652 21.6909L10.6702 21.7029L10.6782 21.7099L10.8792 21.8029C10.8918 21.8063 10.9015 21.8036 10.9082 21.7949L10.9122 21.7809L10.8782 21.1669C10.8748 21.1549 10.8682 21.1476 10.8582 21.1449ZM10.1432 21.1469C10.1388 21.1443 10.1335 21.1434 10.1285 21.1445C10.1234 21.1456 10.119 21.1487 10.1162 21.1529L10.1102 21.1669L10.0762 21.7809C10.0768 21.7929 10.0825 21.8009 10.0932 21.8049L10.1082 21.8029L10.3092 21.7099L10.3192 21.7019L10.3232 21.6909L10.3402 21.2609L10.3372 21.2489L10.3272 21.2389L10.1432 21.1469Z" fill="#00C860"/>
<path id="Vector_2" fill-rule="evenodd" clip-rule="evenodd" d="M10 0C4.477 0 0 4.477 0 10C0 11.89 0.525 13.66 1.438 15.168L0.546 18.2C0.494785 18.3741 0.491415 18.5587 0.536244 18.7346C0.581074 18.9104 0.672448 19.0709 0.800759 19.1992C0.929071 19.3276 1.08958 19.4189 1.26542 19.4638C1.44125 19.5086 1.62592 19.5052 1.8 19.454L4.832 18.562C6.39074 19.5049 8.17824 20.0023 10 20C15.523 20 20 15.523 20 10C20 4.477 15.523 0 10 0ZM7.738 12.263C9.761 14.285 11.692 14.552 12.374 14.577C13.411 14.615 14.421 13.823 14.814 12.904C14.8632 12.7896 14.881 12.6641 14.8655 12.5405C14.85 12.417 14.8019 12.2998 14.726 12.201C14.178 11.501 13.437 10.998 12.713 10.498C12.5619 10.3932 12.3761 10.3512 12.1946 10.3806C12.0131 10.4101 11.8502 10.5088 11.74 10.656L11.14 11.571C11.1083 11.62 11.0591 11.6551 11.0025 11.6692C10.9459 11.6833 10.886 11.6754 10.835 11.647C10.428 11.414 9.835 11.018 9.409 10.592C8.983 10.166 8.611 9.6 8.402 9.219C8.37672 9.17046 8.36957 9.11449 8.38185 9.06115C8.39413 9.00781 8.42503 8.9606 8.469 8.928L9.393 8.242C9.52525 8.12759 9.61063 7.96841 9.63277 7.79495C9.65491 7.62149 9.61226 7.44596 9.513 7.302C9.065 6.646 8.543 5.812 7.786 5.259C7.6881 5.18866 7.57369 5.14479 7.45385 5.13165C7.33402 5.11851 7.21282 5.13654 7.102 5.184C6.182 5.578 5.386 6.588 5.424 7.627C5.449 8.309 5.716 10.24 7.738 12.263Z" fill="#00C860"/>
</g>
</svg>
