<svg width="22" height="22" viewBox="0 0 22 22" fill="none" xmlns="http://www.w3.org/2000/svg">
<g id="Social Media Icon Square/Instagram">
<path id="Instagram" fill-rule="evenodd" clip-rule="evenodd" d="M0.984375 10.8783C0.984375 6.71553 0.984375 4.63414 1.97633 3.13497C2.41929 2.46551 2.99261 1.89219 3.66207 1.44923C5.16124 0.457275 7.24263 0.457275 11.4054 0.457275C15.5682 0.457275 17.6496 0.457275 19.1488 1.44923C19.8182 1.89219 20.3916 2.46551 20.8345 3.13497C21.8265 4.63414 21.8265 6.71553 21.8265 10.8783C21.8265 15.0411 21.8265 17.1225 20.8345 18.6217C20.3916 19.2911 19.8182 19.8645 19.1488 20.3074C17.6496 21.2994 15.5682 21.2994 11.4054 21.2994C7.24263 21.2994 5.16124 21.2994 3.66207 20.3074C2.99261 19.8645 2.41929 19.2911 1.97633 18.6217C0.984375 17.1225 0.984375 15.0411 0.984375 10.8783ZM16.8003 10.8786C16.8003 13.8582 14.3849 16.2737 11.4052 16.2737C8.42561 16.2737 6.01014 13.8582 6.01014 10.8786C6.01014 7.89896 8.42561 5.48349 11.4052 5.48349C14.3849 5.48349 16.8003 7.89896 16.8003 10.8786ZM11.4052 14.4484C13.3768 14.4484 14.975 12.8501 14.975 10.8786C14.975 8.90705 13.3768 7.3088 11.4052 7.3088C9.4337 7.3088 7.83545 8.90705 7.83545 10.8786C7.83545 12.8501 9.4337 14.4484 11.4052 14.4484ZM17.0134 6.48012C17.7136 6.48012 18.2811 5.91256 18.2811 5.21243C18.2811 4.5123 17.7136 3.94474 17.0134 3.94474C16.3133 3.94474 15.7457 4.5123 15.7457 5.21243C15.7457 5.91256 16.3133 6.48012 17.0134 6.48012Z" fill="white"/>
</g>
</svg>
