<svg width="116" height="59" viewBox="0 0 116 59" fill="none" xmlns="http://www.w3.org/2000/svg">
<g id="Logo 1">
<g id="Clip path group">
<mask id="mask0_4096_3827" style="mask-type:luminance" maskUnits="userSpaceOnUse" x="3" y="2" width="73" height="26">
<g id="d813c97ec8">
<path id="Vector" d="M3.31055 2.44873H75.4955V27.2817H3.31055V2.44873Z" fill="white"/>
</g>
</mask>
<g mask="url(#mask0_4096_3827)">
<g id="Group">
<path id="Vector_2" fill-rule="evenodd" clip-rule="evenodd" d="M9.74031 4.19594V13.8597C9.74031 14.0999 9.54519 14.2954 9.30775 14.2954H8.8082L9.01742 27.2534L8.00186 27.2734L8.21108 14.2954H7.71153C7.47409 14.2954 7.27897 14.0999 7.27897 13.8597V4.22184L4.8576 4.24656L4.34042 25.3473C4.24991 25.3343 4.15823 25.3272 4.06419 25.3272C3.81971 25.3272 3.58697 25.3743 3.37305 25.4591V2.44873H75.2818V7.91405L74.4943 9.14675V3.52719L71.3759 3.56016V13.1557C71.0385 13.4806 70.68 13.7973 70.2933 14.1058C70.1452 14.2247 69.9959 14.3389 69.8443 14.4519L69.8455 14.2954H69.3471C69.1097 14.2954 68.9146 14.0999 68.9146 13.8597V3.58489L66.2393 3.61314V13.8597C66.2393 14.0999 66.0442 14.2954 65.8067 14.2954H65.3084L65.3483 16.8137C65.1226 16.8938 64.8958 16.9691 64.6654 17.041L64.7101 14.2954H64.2117C63.9731 14.2954 63.7791 14.0999 63.7791 13.8597V3.63787L61.1027 3.66612V13.8597C61.1027 14.0999 60.9088 14.2954 60.6702 14.2954H60.1718L60.2305 17.9346C59.9908 17.9511 59.7498 17.9617 59.5147 17.9723L59.5747 14.2954H59.0751C58.8365 14.2954 58.6425 14.0999 58.6425 13.8597V3.69085L54.8659 3.7297L55.0963 18.1336L54.3758 18.1547L54.6073 3.73323L50.8307 3.77209V13.8597C50.8307 14.0999 50.6356 14.2954 50.3981 14.2954H49.8986L49.9585 18.0335C49.7564 17.8781 49.513 17.7544 49.2474 17.6544L49.3015 14.2954H48.8019C48.5633 14.2954 48.3694 14.0999 48.3694 13.8597V3.79681L45.6941 3.82507V13.8597C45.6941 14.0999 45.499 14.2954 45.2615 14.2954H44.762L44.8125 17.3589C44.5786 17.3918 44.3424 17.4354 44.1143 17.4931L44.1649 14.2954H43.6665C43.4279 14.2954 43.2339 14.0999 43.2339 13.8597V3.85097L39.4585 3.88982L39.6736 17.2611C39.5502 17.2588 39.4362 17.2564 39.3339 17.2564C39.2269 17.2564 39.1082 17.2588 38.9813 17.2611L39.1952 3.89218L35.4221 3.93103V13.8597C35.4221 14.0999 35.227 14.2954 34.9895 14.2954H34.49L34.5394 17.3871C34.3043 17.3483 34.0692 17.3212 33.8435 17.3012L33.8929 14.2954H33.3933C33.1547 14.2954 32.9608 14.0999 32.9608 13.8597V3.95693L30.2843 3.98401V13.8597C30.2843 14.0999 30.0916 14.2954 29.8529 14.2954H29.3534L29.4075 17.672C29.19 17.5743 28.9526 17.4954 28.7057 17.433L28.7563 14.2954H28.2567C28.0193 14.2954 27.8253 14.0999 27.8253 13.8597V4.00991L25.1489 4.03699V13.8597C25.1489 14.0999 24.955 14.2954 24.7164 14.2954H24.218L24.2673 17.3789C24.0264 17.4307 23.7889 17.4954 23.5668 17.5778L23.6197 14.2954H23.1213C22.8827 14.2954 22.6888 14.0999 22.6888 13.8597V4.06289L18.9168 4.10175L19.1672 19.6159C18.9027 19.6688 18.6453 19.7277 18.3949 19.7913L18.6477 4.1041L14.8757 4.14296V13.8597C14.8757 14.0999 14.6818 14.2954 14.4432 14.2954H13.9448L14.0682 21.9988C13.7567 22.2873 13.4711 22.5993 13.2078 22.936L13.3477 14.2954H12.8481C12.6095 14.2954 12.4156 14.0999 12.4156 13.8597V4.16886L9.74031 4.19594Z" fill="black"/>
</g>
</g>
</g>
<g id="Clip path group_2">
<mask id="mask1_4096_3827" style="mask-type:luminance" maskUnits="userSpaceOnUse" x="73" y="2" width="43" height="51">
<g id="88aa4e3648">
<path id="Vector_3" d="M73.4844 2.7124H115.849V52.3771H73.4844V2.7124Z" fill="white"/>
</g>
</mask>
<g mask="url(#mask1_4096_3827)">
<g id="Group_2">
<path id="Vector_4" fill-rule="evenodd" clip-rule="evenodd" d="M74.7106 4.15369C74.7353 5.03906 74.7941 5.54415 74.8834 5.63363C74.9833 5.73253 75.0174 6.39538 75.0174 8.18498C75.0174 10.0711 74.988 10.5927 74.8834 10.5585C74.8082 10.5338 74.7341 10.2913 74.7153 10.0099L74.6824 9.5048H73.7244V13.4796L74.2087 15.1573L74.6941 16.8362V43.9427L74.1229 44.0145C73.8091 44.0533 73.4811 44.0757 73.3953 44.0639C73.3095 44.051 73.0932 44.0486 72.9157 44.058L72.5925 44.0757L72.8887 44.237C73.1778 44.3936 73.1849 44.4207 73.1849 45.3661V46.3351H71.9989V44.9552C71.9989 43.6989 72.0189 43.5577 72.2199 43.3858C72.4679 43.1727 72.4127 42.9866 72.1012 42.9866C71.9166 42.9866 71.8919 42.9078 71.8919 42.3462C71.8919 41.7787 71.9249 41.6798 72.1834 41.4761C72.4409 41.2736 72.4585 41.2206 72.3363 41.024C72.2598 40.9015 72.1729 40.48 72.1435 40.0892C72.1141 39.6983 72.0459 39.2933 71.9907 39.1908C71.8238 38.8776 71.879 38.6928 72.1611 38.6222C72.3092 38.5845 72.4303 38.5068 72.4303 38.4479C72.4303 38.3902 72.3092 38.3419 72.1611 38.3419C71.9037 38.3419 71.8919 38.3137 71.8919 37.7015V37.0598L72.3962 36.9833C72.904 36.9079 73.4505 36.4911 73.3659 36.2451C73.3213 36.1108 72.7759 36.1026 72.1952 36.2262L71.7991 36.311L71.8438 35.2608C71.8673 34.6839 71.9425 34.1446 72.0107 34.0622C72.1012 33.9527 72.1023 33.8762 72.013 33.7679C71.8814 33.6101 71.8191 32.3268 71.7309 28.0082L71.6757 25.2885L71.919 25.2544C72.2563 25.2061 72.2328 24.8965 71.8919 24.8929C71.6616 24.8906 71.6216 24.8388 71.6157 24.5444C71.6075 24.1359 71.4876 23.9758 71.3524 24.1936C71.2078 24.4291 71.0833 24.2265 71.0833 23.7532C71.0833 23.2117 70.8846 23.1952 70.8129 23.7309C70.7447 24.2548 70.6448 24.0911 70.5484 23.2929C70.4497 22.4735 70.2369 21.8718 70.0477 21.8718C69.929 21.8718 69.9055 22.0366 69.9349 22.6453C69.9831 23.6367 69.8878 24.0853 69.6304 24.0853C69.3895 24.0853 69.3037 23.878 69.3037 23.2882C69.3037 23.0374 69.2566 22.7843 69.1979 22.7254C69.1273 22.6548 69.1273 22.4923 69.1979 22.2462C69.3601 21.6764 69.3307 21.5504 68.9981 21.4256C68.7324 21.3243 68.6748 21.2219 68.5608 20.645C68.4891 20.28 68.3892 19.981 68.3386 19.981C68.2869 19.981 68.1905 20.3342 68.1235 20.7651C67.9825 21.6717 67.9014 21.8565 67.6216 21.9107C67.3454 21.9648 67.2584 22.1297 67.3278 22.4746C67.3595 22.6336 67.3325 22.796 67.2667 22.8373C67.202 22.8773 67.1479 23.1752 67.1479 23.4989C67.1479 24.0558 67.1374 24.0806 66.9375 23.9558C66.8212 23.8828 66.7048 23.8463 66.6789 23.8733C66.6531 23.9016 66.5732 24.555 66.5015 25.3274C66.4298 26.0997 66.3486 26.7685 66.3216 26.8132C66.2511 26.9298 66.0701 26.9121 66.0701 26.7897C66.0701 26.732 65.8244 26.2669 65.5235 25.7571C65.0921 25.026 64.991 24.767 65.0439 24.5291C65.0886 24.3254 65.0557 24.1842 64.9428 24.09C64.8241 23.9911 64.7759 23.7521 64.7759 23.2623C64.7759 22.8832 64.7301 22.5735 64.6725 22.5735C64.4539 22.5735 64.3234 23.0645 64.3058 23.9628C64.294 24.5986 64.2341 24.9812 64.1177 25.1661C64.0248 25.3144 63.6393 25.9832 63.262 26.6507C62.8847 27.3195 62.5297 27.8658 62.4733 27.8658C62.4098 27.8658 62.3992 26.1527 62.4463 23.3023C62.5097 19.4959 62.5485 18.72 62.679 18.6199C62.9235 18.4327 62.8812 18.109 62.6214 18.1761C62.4345 18.2255 62.4086 18.182 62.4227 17.8346C62.431 17.6168 62.3851 17.3378 62.3193 17.2153C62.2535 17.0929 62.1971 16.7538 62.1924 16.4618C62.1771 15.3798 62.1524 15.2821 61.8915 15.2915C61.6599 15.2998 61.6505 15.2633 61.6481 14.3732C61.647 13.2571 61.5788 12.9615 61.3261 12.9615C61.0534 12.9615 61.0028 13.1711 61.0028 14.3061C61.0028 15.6082 60.9276 15.985 60.6667 15.985C60.4245 15.985 60.3975 16.1828 60.6255 16.2699C60.8947 16.3735 60.8077 16.6443 60.4645 16.7738C60.0319 16.9375 60.0554 17.0658 60.5186 17.0658C60.7254 17.0658 60.8947 17.0776 60.8947 17.0929C60.8935 17.107 60.8206 17.3578 60.7325 17.6498C60.6443 17.9406 60.5715 18.5976 60.5703 19.1074C60.5679 20.2117 60.4574 20.4908 60.2118 20.0139C60.1201 19.8362 60.0719 19.5854 60.106 19.4559C60.1542 19.2722 60.1295 19.2369 59.992 19.2899C59.8956 19.3264 59.818 19.3028 59.818 19.2369C59.818 19.1709 59.8686 19.118 59.932 19.118C59.9943 19.118 60.0155 19.0685 59.979 19.0096C59.9426 18.9496 59.818 18.9013 59.7028 18.9013C59.5876 18.9013 59.4936 18.8531 59.4936 18.793C59.4936 18.7341 59.543 18.6859 59.6017 18.6859C59.8051 18.6859 59.7099 18.5046 59.4419 18.3821C59.2691 18.3032 59.1974 18.202 59.2374 18.096C59.275 17.9995 59.2291 17.9029 59.128 17.8653C59.0328 17.8288 58.9553 17.711 58.9553 17.6051C58.9553 17.4991 58.8777 17.3825 58.7825 17.346C58.6849 17.3084 58.6355 17.2106 58.6708 17.12C58.7061 17.027 58.6449 16.9139 58.5239 16.8492C58.4099 16.788 58.3417 16.6702 58.3734 16.589C58.4052 16.5066 58.3852 16.4112 58.3299 16.3771C58.2735 16.3417 58.089 16.0333 57.9185 15.6907C57.7469 15.3481 57.5718 15.0514 57.5271 15.0313C57.4824 15.0113 57.446 14.9101 57.446 14.8053C57.446 14.7017 57.3214 14.5592 57.1698 14.4898C57.0182 14.4215 56.9241 14.3167 56.9594 14.259C56.9958 14.2013 56.7067 13.6574 56.3176 13.051C55.8416 12.3081 55.6464 11.9125 55.7193 11.8395C55.8815 11.677 55.851 11.2355 55.6735 11.1672C55.5888 11.1343 55.4878 10.9647 55.449 10.7917C55.3949 10.5421 55.4501 10.3796 55.7123 10.0228C55.9462 9.70495 56.0449 9.44829 56.0449 9.15983C56.0449 8.67123 55.7875 8.59352 55.5924 9.02208C55.503 9.2187 55.4443 9.25638 55.382 9.15748C55.3138 9.04681 55.2527 9.04563 55.0822 9.15159C54.8084 9.32231 54.7766 9.26109 54.6238 8.27328C54.4393 7.08179 54.2559 7.19717 54.1442 8.57586C54.0749 9.43887 54.2077 9.92747 54.5368 10.0146C54.7155 10.0605 54.7508 10.1618 54.7508 10.6304C54.7508 10.9376 54.6979 11.2438 54.632 11.3085C54.5028 11.438 54.598 11.8807 54.7555 11.8807C54.8483 11.8807 54.5803 12.4176 54.0573 13.2853C53.9315 13.4925 53.7328 13.8504 53.6153 14.08C53.4989 14.3096 53.3426 14.5215 53.2686 14.551C53.1945 14.5804 53.1334 14.6687 53.1334 14.7464C53.1334 14.8241 52.9606 15.1161 52.749 15.394C52.5374 15.6718 52.3905 15.9685 52.4234 16.0533C52.461 16.1522 52.3752 16.2523 52.1883 16.33C51.9486 16.4289 51.9298 16.4595 52.0884 16.4972C52.2424 16.5337 52.2565 16.5749 52.1554 16.6961C52.0861 16.7809 51.9627 16.8492 51.8804 16.8492C51.7993 16.8492 51.7323 16.941 51.7323 17.0541C51.7323 17.1659 51.6594 17.286 51.5701 17.3201C51.375 17.3955 51.3573 17.6745 51.543 17.7499C51.6183 17.7793 51.5771 17.8087 51.4537 17.8123C51.1528 17.824 51.0611 17.9324 51.2057 18.1066C51.2974 18.2173 51.2586 18.275 51.0317 18.3609C50.7955 18.4516 50.7626 18.5022 50.8648 18.6258C50.9647 18.7459 50.9483 18.8013 50.7849 18.8884C50.6697 18.9508 50.4969 19.2628 50.3911 19.5983C50.0456 20.6992 49.908 20.5273 49.8375 18.9025C49.8081 18.2467 49.7388 17.5862 49.6812 17.4343C49.5378 17.0576 49.5331 17.0658 49.9268 17.0623L50.2771 17.0599L49.8998 16.7456C49.5766 16.4771 49.5495 16.4218 49.7106 16.3594C49.9503 16.2664 49.9515 16.1016 49.7153 15.9285C49.5683 15.8202 49.5096 15.5046 49.4249 14.3767C49.3344 13.1605 49.2933 12.9615 49.137 12.9615C48.8925 12.9615 48.8243 13.2677 48.8231 14.3767L48.8219 15.3068L48.5516 15.2562C48.2589 15.1997 48.2754 15.1255 48.2307 16.6337C48.2225 16.901 48.1637 17.2165 48.1002 17.3354C48.0368 17.4544 48.0086 17.7063 48.0368 17.8947C48.0838 18.202 48.065 18.2326 47.8628 18.1796C47.5972 18.1101 47.5584 18.3115 47.7876 18.5693C47.9098 18.7071 47.9545 19.6172 48.018 23.3023C48.0685 26.2245 48.0591 27.8658 47.9921 27.8658C47.9345 27.8658 47.536 27.2347 47.1047 26.4624C46.6744 25.69 46.2877 25.0366 46.2442 25.0107C46.2019 24.9836 46.1584 24.5503 46.1479 24.0476C46.1267 23.0904 45.9868 22.5135 45.8035 22.6277C45.7435 22.6642 45.6953 22.9762 45.6953 23.3188C45.6953 23.8015 45.6471 23.9875 45.4861 24.1347C45.3215 24.2831 45.3016 24.3643 45.3932 24.5126C45.4884 24.6645 45.3921 24.9118 44.8902 25.8066C44.5399 26.4329 44.2296 26.8733 44.1767 26.8203C44.0979 26.7414 43.8664 24.6916 43.864 24.0499C43.8628 23.8886 43.8052 23.8651 43.5549 23.9204L43.2469 23.9875L43.2975 23.4565C43.3292 23.1292 43.3022 22.8973 43.2281 22.8514C43.1623 22.8102 43.1082 22.6088 43.1082 22.4028C43.1082 22.1049 43.0541 22.0072 42.8449 21.9283C42.4876 21.7918 42.3536 21.5009 42.3536 20.8616C42.3536 19.8385 42.1138 19.6772 41.9152 20.5673C41.7671 21.2278 41.7377 21.2831 41.4368 21.455C41.2605 21.5551 41.2264 21.6728 41.2499 22.1014C41.2663 22.3887 41.244 22.6983 41.2029 22.7878C41.1605 22.8785 41.1229 23.1646 41.1194 23.4248C41.1159 23.7544 41.0559 23.9334 40.9219 24.0182C40.621 24.2089 40.5152 23.9263 40.5258 22.9515C40.5387 21.8 40.5411 21.8177 40.3812 21.8177C40.2402 21.8177 39.8735 22.8349 39.8735 23.2281C39.8735 23.4047 39.8253 23.4295 39.5925 23.3706C39.3292 23.3047 39.3151 23.32 39.3751 23.612C39.4433 23.9428 39.1447 24.4903 39.0436 24.2207C38.9343 23.9275 38.7815 24.1088 38.8144 24.4903C38.8473 24.8623 38.825 24.8988 38.5535 24.9294C38.1773 24.973 38.1515 25.2732 38.5252 25.2732H38.7932L38.7392 27.4608C38.6075 32.8837 38.5758 33.6266 38.4759 33.7479C38.4171 33.8197 38.4101 33.9209 38.4618 33.9763C38.5123 34.0316 38.5793 34.5791 38.6111 35.1949L38.6687 36.3134L38.3278 36.2392C38.1409 36.1991 37.8059 36.1391 37.5826 36.1061C37.2076 36.0496 37.1782 36.0649 37.1782 36.3169C37.1782 36.6595 37.3181 36.7702 37.9869 36.9562L38.5264 37.1069L38.5582 37.6673C38.5887 38.1912 38.5734 38.2325 38.3113 38.2972C37.9857 38.3796 38.0069 38.5963 38.3466 38.6469C38.597 38.6834 38.6616 38.9742 38.463 39.1732C38.3983 39.2379 38.3254 39.5994 38.3007 39.9773C38.2749 40.3552 38.1997 40.8026 38.1315 40.971C38.0198 41.2465 38.0363 41.3007 38.289 41.5114C38.5205 41.7033 38.5746 41.8493 38.5981 42.3391C38.624 42.9125 38.6158 42.9337 38.3337 42.9666C37.9893 43.0067 37.9493 43.2539 38.2596 43.4199C38.4653 43.5306 38.4771 43.6248 38.4488 44.9552L38.4183 46.3727H37.0172L36.9631 33.0768C36.909 19.8314 36.9079 19.7796 36.6857 19.4806C36.4624 19.1815 35.877 18.9484 35.609 19.0509C35.5256 19.0838 35.4527 19.3205 35.4327 19.6242C35.401 20.1223 35.3869 20.1434 35.0766 20.1434C34.7686 20.1434 34.7521 20.1199 34.7204 19.6395C34.6851 19.0921 34.6193 19.0332 34.0528 19.052C33.6813 19.0638 33.6743 19.0709 33.6425 19.576C33.6143 20.021 33.5732 20.0975 33.3381 20.1564C32.9796 20.2471 32.8868 20.1329 32.8468 19.5489L32.8127 19.0638H31.8888L31.8653 23.1681L31.843 27.2724L16.9892 27.2995C3.85384 27.323 2.12832 27.3077 2.07425 27.1641C1.96494 26.8815 1.6417 26.9851 0.726044 27.5997C0.237068 27.9282 -0.275415 28.2249 -0.411764 28.259C-0.54929 28.2932 -0.665657 28.3285 -0.671534 28.3367C-0.678585 28.345 -0.745584 30.0286 -0.821987 32.0784C-0.897215 34.127 -1.003 35.9743 -1.0559 36.1803C-1.16756 36.61 -1.63538 36.9774 -2.32183 37.174C-2.92364 37.3459 -3.03178 37.4495 -3.03178 37.8498C-3.03178 38.1077 -3.12699 38.2784 -3.40909 38.5291L-3.7864 38.8635V47.6313H-4.64916V44.7845C-4.64916 42.956 -4.60567 41.814 -4.52809 41.5903C-4.43758 41.3325 -4.43758 41.2112 -4.52809 41.1205C-4.7714 40.8768 -4.64798 39.962 -4.37176 39.962C-4.29183 39.962 -4.17311 39.8655 -4.10964 39.7465C-4.00973 39.5582 -4.02854 39.5299 -4.25304 39.5299C-4.56218 39.5299 -4.53632 39.7654 -4.60684 36.3145C-4.65856 33.7573 -4.65386 33.6843 -4.42701 33.3652C-4.29888 33.1851 -4.2119 33.0214 -4.23306 33.0026C-4.25422 32.9826 -4.51399 32.899 -4.81137 32.8166L-5.34971 32.6659L-5.38145 32.0607C-5.41318 31.4709 -5.40495 31.452 -5.08524 31.3402C-4.67149 31.1954 -4.65974 30.9976 -5.06526 30.9976C-5.36382 30.9976 -5.37557 30.9775 -5.44374 30.3229C-5.50016 29.7861 -5.48136 29.6236 -5.35089 29.5282C-5.13343 29.3681 -5.14519 29.1903 -5.38262 29.042C-5.5225 28.9548 -5.56481 28.8277 -5.53073 28.5981C-5.49194 28.3285 -5.51662 28.2837 -5.68588 28.3179C-5.83516 28.3485 -5.881 28.438 -5.85749 28.6546C-5.83751 28.8418 -5.88688 28.9725 -5.99267 29.0137C-6.19601 29.0914 -6.21129 29.4434 -6.015 29.5612C-5.93742 29.6094 -5.84456 29.7248 -5.8093 29.8202C-5.75523 29.9674 -5.8763 29.9933 -6.68029 30.0074C-7.7029 30.0239 -8.7455 29.7919 -8.7455 29.5482C-8.7455 29.467 -8.67263 29.3728 -8.58447 29.3387C-8.35879 29.2527 -8.38112 28.9748 -8.62326 28.8453C-8.76549 28.7688 -8.80898 28.657 -8.77254 28.4627C-8.74315 28.3085 -8.89126 27.6586 -9.11341 26.9686C-9.59651 25.471 -10.3358 24.2513 -11.0717 23.7356C-11.2891 23.5837 -11.5066 23.4306 -11.7217 23.2752C-11.9391 23.1175 -12.1237 22.2085 -12.1331 21.2561C-12.1378 20.7451 -12.193 20.373 -12.2765 20.2894C-12.3505 20.2153 -12.4105 20.0504 -12.4105 19.9245C-12.4105 19.7985 -12.5304 19.583 -12.6773 19.4453C-12.8759 19.2569 -12.9429 19.0838 -12.9418 18.7506C-12.9394 17.6227 -12.9429 17.6051 -13.151 17.6051C-13.3132 17.6051 -13.3637 17.7146 -13.4178 18.1725C-13.4542 18.4845 -13.4566 18.8448 -13.4225 18.9732C-13.3778 19.1439 -13.4331 19.2545 -13.6294 19.3841C-13.7916 19.49 -13.9256 19.7066 -13.9679 19.9303C-14.0055 20.1329 -14.1172 20.3448 -14.2159 20.4001C-14.3675 20.4849 -14.3758 20.5449 -14.2653 20.7863C-14.0807 21.1925 -14.1007 21.9778 -14.2994 22.1426C-14.3887 22.218 -14.4545 22.3816 -14.4439 22.5076C-14.3993 23.0645 -14.4722 23.1952 -15.0657 23.6037C-15.6617 24.0146 -16.3117 24.7728 -16.6584 25.4604C-16.8806 25.9019 -17.3696 27.2559 -17.3696 27.4301C-17.3696 27.5031 -17.446 27.7245 -17.54 27.9223C-17.6717 28.2001 -17.6822 28.332 -17.5894 28.5063C-17.4859 28.6993 -17.5083 28.7488 -17.7434 28.8559C-18.0795 29.009 -18.0854 29.0902 -17.7763 29.2963C-17.1686 29.7001 -18.2946 30.0792 -19.758 29.965L-20.7066 29.8908L-20.4398 29.6801C-20.1365 29.4423 -20.1024 29.2468 -20.3281 29.0596C-20.4139 28.9878 -20.4985 28.7794 -20.5174 28.5957C-20.5655 28.1036 -20.8194 28.0765 -20.8194 28.5628C-20.8194 28.81 -20.8794 28.976 -20.9816 29.0149C-21.1768 29.0902 -21.1862 29.3669 -21.0004 29.6106C-20.9123 29.7272 -20.8853 29.9874 -20.924 30.3665C-20.9769 30.9022 -21.0028 30.9469 -21.2837 30.9787C-21.6422 31.0199 -21.6175 31.2354 -21.2426 31.3237C-21.0028 31.3814 -20.9816 31.4367 -20.9816 32.0289V32.6706L-21.6128 32.839L-22.244 33.0061L-21.9596 33.3452L-21.674 33.6843L-21.7186 36.2027C-21.768 39.0507 -21.8256 39.5299 -22.1183 39.5299C-22.458 39.5299 -22.458 39.7301 -22.1183 39.9055C-21.7233 40.1103 -21.6093 40.493 -21.7833 41.0252C-21.8785 41.3148 -21.882 41.502 -21.7974 41.7245C-21.6458 42.1248 -21.6387 47.6313 -21.7903 47.6313C-21.8585 47.6313 -21.8973 48.5132 -21.8973 50.0614V52.4915L91.6155 52.4644L205.13 52.4373L205.166 47.6996C205.2 43.168 205.211 42.9549 205.409 42.8089C205.709 42.5899 205.524 42.3638 204.811 42.0777L204.221 41.8387L204.193 36.1627C204.168 31.2107 204.186 30.4689 204.328 30.3512C204.551 30.1652 204.531 29.9544 204.284 29.8897C204.018 29.819 203.933 28.9866 203.912 26.2375C203.899 24.4338 203.919 24.1912 204.108 23.838L204.32 23.446L204.081 23.1916C203.951 23.0515 203.844 22.8702 203.844 22.7866C203.844 22.7042 203.721 22.537 203.573 22.4158C203.324 22.2133 203.312 22.1626 203.418 21.7847C203.51 21.4586 203.497 21.2643 203.357 20.8404C203.208 20.3919 203.125 20.293 202.837 20.2188C202.5 20.1317 202.495 20.1211 202.464 19.3911C202.446 18.9849 202.48 18.6046 202.539 18.5446C202.611 18.4739 202.589 18.328 202.478 18.1113C202.321 17.8076 202.301 17.7993 202.2 17.9924C202.14 18.1054 202.016 18.2597 201.923 18.3338C201.77 18.4563 201.772 18.4692 201.936 18.4692C202.091 18.4692 202.118 18.5905 202.118 19.2816V20.0952L201.79 20.1611C201.321 20.2541 201.113 20.7156 201.13 21.6222C201.14 22.152 201.101 22.3734 200.988 22.4358C200.904 22.484 200.71 22.7572 200.558 23.0445L200.281 23.566L200.497 23.9169C200.617 24.11 200.69 24.2925 200.659 24.3231C200.63 24.3525 199.964 24.1959 199.18 23.9746C192.57 22.1073 191.18 21.694 191.104 21.5751C190.979 21.3785 190.995 20.1976 191.122 20.1976C191.282 20.1976 191.254 19.9892 191.068 19.8044C190.925 19.6596 190.888 19.6607 190.738 19.8114C190.644 19.9056 190.523 19.981 190.468 19.981C190.413 19.981 190.367 20.0304 190.367 20.0893C190.367 20.1493 190.46 20.1976 190.573 20.1976C190.759 20.1976 190.773 20.2612 190.721 20.8722C190.691 21.2443 190.631 21.5845 190.591 21.6293C190.551 21.674 189.937 21.8765 189.23 22.0779C184.272 23.4907 179.477 24.8341 179.174 24.8965C178.861 24.9612 178.825 25.0024 178.896 25.2038C179.015 25.5334 179.082 39.1755 178.992 44.3642L178.915 48.711H177.755V41.0664C177.755 34.3754 177.775 33.3923 177.92 33.1863C178.05 33.0003 178.089 32.5729 178.104 31.1906L178.123 29.4317L177.723 29.3987L177.324 29.3646V30.5796L176.973 30.5455C176.631 30.5125 176.622 30.4984 176.59 29.9391L176.557 29.3657L176.167 29.3987L175.778 29.4317L175.769 29.9721C175.76 30.4984 175.752 30.5125 175.437 30.5125C175.121 30.5125 175.114 30.4995 175.114 29.9721V29.4317L174.317 29.3657L174.284 29.9391C174.254 30.4689 174.231 30.5125 173.982 30.5125C173.732 30.5125 173.712 30.4736 173.703 29.9721L173.694 29.4317L173.267 29.3999L172.839 29.3681L172.845 29.9403C172.849 30.4854 172.836 30.5137 172.553 30.5466C172.261 30.5796 172.256 30.5714 172.256 29.9721V29.3646L171.852 29.3987L171.448 29.4317L171.415 30.005C171.384 30.5584 171.371 30.5784 171.092 30.5455C170.814 30.5137 170.802 30.4878 170.825 29.945L170.848 29.3775H170.004L169.939 30.5125H169.184L169.176 29.9721L169.166 29.4317L168.777 29.3987L168.387 29.3657L168.354 29.9391C168.325 30.4689 168.302 30.5125 168.052 30.5125C167.803 30.5125 167.78 30.4689 167.75 29.9391L167.717 29.3657L167.328 29.3987L166.938 29.4317L166.929 29.9721C166.921 30.4736 166.901 30.5125 166.651 30.5125C166.402 30.5125 166.379 30.4689 166.349 29.945L166.316 29.3775H165.465V29.9791C165.465 30.5714 165.46 30.5796 165.169 30.5466C164.889 30.5137 164.872 30.4807 164.872 29.9721V29.4317L164.076 29.3657L164.043 29.9391C164.012 30.4748 163.99 30.5148 163.714 30.5466C163.421 30.5796 163.417 30.5714 163.417 29.9721V29.3646L163.013 29.3987L162.609 29.4317V29.9721C162.609 30.5019 162.602 30.5125 162.258 30.5455L161.908 30.5796V29.3775H161.012L161.088 31.2413C161.129 32.2656 161.209 33.1203 161.265 33.1404C161.33 33.1627 161.369 36.0955 161.369 40.9439V48.711H159.644V45.5827C159.644 42.5651 159.651 42.4498 159.859 42.3391C159.978 42.2755 160.074 42.1719 160.074 42.1083C160.074 42.0459 159.978 41.9694 159.859 41.9376C159.65 41.8835 159.644 41.7904 159.644 38.7211C159.644 36.0155 159.668 35.541 159.809 35.4233C159.955 35.302 159.949 35.2631 159.755 35.0818C159.548 34.8887 159.536 34.751 159.536 32.4598C159.536 29.8449 159.497 30.0262 160.181 29.4493C160.372 29.2892 160.505 29.0961 160.475 29.0208C160.446 28.9442 158.651 28.4168 156.341 27.8081L152.259 26.732H126.171L122.089 27.8069C119.321 28.5345 117.988 28.9325 117.946 29.042C117.913 29.1303 117.934 29.2197 117.994 29.2398C118.054 29.2598 118.281 29.4387 118.499 29.6389L118.894 30.0015V32.408C118.894 34.4508 118.868 34.844 118.723 35.0041C118.591 35.1489 118.58 35.242 118.67 35.4103C118.745 35.5516 118.787 36.7078 118.787 38.6999C118.787 41.7516 118.784 41.7728 118.547 41.9305L118.308 42.0895L118.547 42.2178C118.782 42.3438 118.787 42.385 118.787 44.5396C118.787 45.7464 118.755 47.2511 118.716 47.8845L118.646 49.0348H116.953L116.951 47.3876C116.949 46.4822 116.938 44.3312 116.925 42.6087L116.9 39.4769L116.563 39.444C116.265 39.4145 116.217 39.3627 116.159 39.0119C116.123 38.7917 116.092 38.2325 116.092 37.7686L116.091 36.9244L115.795 36.9585C115.561 36.9844 115.491 37.0563 115.464 37.2894C115.431 37.5814 115.391 37.6132 115.066 37.6132C114.743 37.6132 114.703 37.5814 114.67 37.2894C114.643 37.0563 114.571 36.9844 114.339 36.9585C114.074 36.9279 114.043 36.9585 114.043 37.2435C114.043 37.499 113.985 37.5778 113.758 37.6344C113.427 37.7179 113.321 37.6367 113.27 37.2623C113.241 37.0421 113.174 36.9927 112.912 36.9927C112.638 36.9927 112.582 37.041 112.533 37.3165C112.486 37.5908 112.429 37.6402 112.156 37.6402C111.883 37.6402 111.827 37.5908 111.779 37.3165C111.732 37.041 111.674 36.9927 111.4 36.9927C111.118 36.9927 111.08 37.028 111.097 37.28C111.112 37.506 111.057 37.5814 110.838 37.6367C110.516 37.7179 110.409 37.6344 110.36 37.2623C110.331 37.0421 110.264 36.9927 110.001 36.9927C109.728 36.9927 109.67 37.041 109.623 37.3165C109.582 37.5555 109.5 37.6497 109.311 37.6767C109.025 37.7179 108.872 37.5461 108.87 37.1811C108.868 36.9833 108.807 36.9385 108.545 36.9385C108.257 36.9385 108.222 36.9739 108.222 37.2623C108.222 37.559 108.19 37.5861 107.852 37.5861C107.527 37.5861 107.477 37.5496 107.447 37.2894C107.418 37.0386 107.361 36.9927 107.09 36.9927C106.803 36.9927 106.762 37.0327 106.733 37.3435C106.696 37.7238 106.416 37.8263 106.184 37.5449C106.046 37.38 106.084 30.8445 106.226 29.8814C106.313 29.2986 106.228 29.1397 105.88 29.2303C105.728 29.2704 105.635 29.3916 105.614 29.5777C105.59 29.7813 105.517 29.8638 105.364 29.8638C105.196 29.8638 105.153 29.799 105.169 29.5671C105.185 29.3328 105.133 29.2562 104.919 29.2021C104.603 29.1232 104.48 29.2209 104.43 29.593C104.41 29.7437 104.311 29.8779 104.205 29.8979C104.06 29.9262 104.017 29.8602 104.017 29.6083C104.017 29.2303 103.89 29.1197 103.572 29.2197C103.365 29.2857 103.351 29.3445 103.417 29.9026C103.457 30.237 103.498 30.828 103.51 31.2142L103.532 31.9159H103.155C102.796 31.9159 102.775 31.8959 102.743 31.5109C102.711 31.1176 102.699 31.1059 102.286 31.1059C101.862 31.1059 101.86 31.1071 101.86 31.538C101.86 31.9595 101.852 31.9701 101.483 31.9701C101.115 31.9701 101.106 31.9595 101.106 31.538V31.1059H100.136V31.538C100.136 31.9595 100.127 31.9701 99.7588 31.9701C99.3909 31.9701 99.3815 31.9595 99.3815 31.538V31.1059H98.3037V31.538C98.3037 31.9583 98.2931 31.9701 97.9322 31.9701C97.582 31.9701 97.5596 31.9477 97.5279 31.565C97.4961 31.1706 97.4844 31.16 97.0636 31.16C96.6416 31.16 96.6322 31.1695 96.5981 31.5709C96.5664 31.963 96.5488 31.9807 96.2208 31.9489C95.9081 31.9194 95.8752 31.8794 95.8435 31.505L95.8106 31.0941L95.3592 31.1271C94.9208 31.1589 94.9067 31.1718 94.8738 31.5709C94.842 31.963 94.8232 31.9807 94.4965 31.9489C94.1568 31.9171 94.1521 31.9088 94.1203 31.2778C94.1015 30.9269 94.1356 30.5137 94.1956 30.3594C94.2555 30.2064 94.319 29.9097 94.3366 29.7025C94.3672 29.3469 94.3472 29.3222 94.0181 29.2904C93.6913 29.2586 93.6678 29.2786 93.6678 29.5871C93.6678 29.8426 93.6196 29.9179 93.4586 29.9179C93.3022 29.9179 93.2423 29.8308 93.2164 29.5671C93.1882 29.2774 93.133 29.2103 92.8932 29.1821C92.637 29.1526 92.6005 29.1891 92.57 29.507C92.5441 29.7825 92.4806 29.872 92.2937 29.8991C92.0869 29.9273 92.0504 29.8838 92.0504 29.6012C92.0504 29.2939 92.0234 29.2704 91.6661 29.2704C91.3499 29.2704 91.2923 29.3033 91.3405 29.4587C91.5603 30.1663 91.6872 34.5485 91.5485 36.6465C91.4827 37.6402 91.4651 37.7026 91.2535 37.6732C91.0983 37.6508 91.0113 37.5402 90.9726 37.3165C90.9267 37.0433 90.8621 36.9868 90.5682 36.9585C90.2426 36.9268 90.2179 36.948 90.2179 37.2529C90.2179 37.5119 90.1615 37.5967 89.9546 37.6485C89.5961 37.738 89.4633 37.632 89.4633 37.2564C89.4633 36.9762 89.4257 36.9385 89.1436 36.9385C88.8721 36.9385 88.8086 36.9927 88.7322 37.2894C88.6605 37.5637 88.5841 37.6402 88.3796 37.6402C88.1739 37.6402 88.1057 37.572 88.0622 37.3165C88.014 37.041 87.9576 36.9927 87.6837 36.9927C87.4122 36.9927 87.3558 37.0386 87.3276 37.2894C87.3029 37.5025 87.2159 37.6049 87.0196 37.6544C86.7128 37.7321 86.5577 37.5731 86.5541 37.1811C86.553 36.9833 86.4919 36.9385 86.2297 36.9385C85.9441 36.9385 85.9065 36.975 85.9065 37.2505C85.9065 37.4978 85.8465 37.5778 85.6209 37.6344C85.2894 37.7179 85.1836 37.6367 85.1331 37.2623C85.1037 37.0421 85.0379 36.9927 84.7746 36.9927C84.5042 36.9927 84.4454 37.0398 84.4172 37.2788C84.3961 37.4636 84.3032 37.5861 84.1539 37.6249C83.8707 37.6991 83.6332 37.5201 83.7179 37.2976C83.7931 37.1022 83.578 36.9421 83.2383 36.9397C83.0396 36.9385 82.995 36.9974 82.995 37.26C82.995 37.5119 82.9374 37.5967 82.7317 37.6485C82.3732 37.738 82.2403 37.632 82.2403 37.2564C82.2403 36.9892 82.198 36.9385 81.9712 36.9385H81.702V39.4228H80.8392V39.8549C80.8392 40.2434 80.8122 40.287 80.5701 40.287C80.3338 40.287 80.2997 40.2399 80.2997 39.9102C80.2997 39.6017 80.2527 39.5228 80.0364 39.4687C79.658 39.3733 79.5451 39.4875 79.5451 39.9691C79.5451 40.2034 79.4969 40.3941 79.4381 40.3941C79.3664 40.3941 79.33 36.3875 79.33 28.5887V16.7821L79.8037 15.1114C80.2997 13.3642 80.335 13.0616 80.3127 10.714L80.2997 9.49303L79.7884 9.52599L79.2759 9.55896L79.243 10.0723C79.2254 10.3537 79.1643 10.5856 79.1078 10.5856C79.0526 10.5856 79.0044 10.5244 79.0021 10.4502C78.9633 9.13275 79.0385 5.75843 79.1102 5.62539C79.1619 5.52767 79.2183 4.86599 79.2336 4.15486L79.2618 2.86212L78.7564 2.82915L78.2521 2.79736V4.10424H77.9289C77.5822 4.10424 77.5739 4.08775 77.5598 3.34837L77.5516 2.86212L76.985 2.83033L76.4197 2.79736V4.10424H75.772V2.80914H74.6718L74.7106 4.15369ZM57.1768 14.9054C57.2133 14.9642 57.2638 15.0137 57.2909 15.0137C57.3167 15.0137 57.3379 14.9642 57.3379 14.9054C57.3379 14.8453 57.2861 14.797 57.2239 14.797C57.1616 14.797 57.1392 14.8453 57.1768 14.9054ZM39.5878 23.712C39.5526 23.8039 39.5514 23.9063 39.5843 23.9393C39.6783 24.0335 39.8735 23.8733 39.8735 23.7014C39.8735 23.4942 39.6678 23.5025 39.5878 23.712Z" fill="black"/>
</g>
</g>
</g>
<g id="Clip path group_3">
<mask id="mask2_4096_3827" style="mask-type:luminance" maskUnits="userSpaceOnUse" x="19" y="19" width="9" height="13">
<g id="61011ccc54">
<path id="Vector_5" d="M19.8594 19.8926H27.6548V31.2577H19.8594V19.8926Z" fill="white"/>
</g>
</mask>
<g mask="url(#mask2_4096_3827)">
<g id="Group_3">
<path id="Vector_6" d="M27.5898 30.9904C26.5283 30.2628 20.2257 25.7099 22.479 21.5845C22.6377 21.2925 22.854 21.0511 23.129 20.8627C23.4041 20.6732 23.7073 20.5566 24.0376 20.5107C24.8193 20.4047 25.8607 20.5272 26.4296 21.6893C26.5554 21.9471 26.3567 22.2426 26.0688 22.2297C25.963 22.2238 25.8572 22.2085 25.7526 22.1849C25.4517 22.1178 25.1366 22.1461 24.8569 22.2756C24.4902 22.4451 24.1258 22.7736 24.3291 23.4C24.4044 23.626 24.5254 23.8226 24.6923 23.991C25.0026 24.3077 25.6303 24.7586 26.4202 24.3277C27.0972 23.9592 27.4734 23.2057 27.3617 22.4475C27.27 21.8117 26.8633 21.0429 25.6209 20.4801C25.6209 20.4801 23.3171 19.3345 21.4117 20.7839C21.0356 21.0688 20.7476 21.4243 20.5466 21.8506C20.2175 22.5464 19.8802 23.7885 20.4749 25.3815C20.8534 26.394 21.5152 27.2794 22.3697 27.9469C23.4817 28.8135 25.6174 30.3923 27.4499 31.2341C27.5063 31.26 27.5568 31.2518 27.6039 31.2106C27.6379 31.18 27.6532 31.1423 27.6497 31.0976C27.6473 31.0516 27.6274 31.0163 27.5898 30.9904Z" fill="black"/>
</g>
</g>
</g>
<g id="Clip path group_4">
<mask id="mask3_4096_3827" style="mask-type:luminance" maskUnits="userSpaceOnUse" x="17" y="20" width="3" height="3">
<g id="0d402b5dd1">
<path id="Vector_7" d="M17.6992 20.4956H19.5599V22.6054H17.6992V20.4956Z" fill="white"/>
</g>
</mask>
<g mask="url(#mask3_4096_3827)">
<g id="Group_4">
<path id="Vector_8" d="M17.6484 21.5188C17.6484 21.6259 17.6684 21.7284 17.7096 21.8261C17.7507 21.925 17.8095 22.0121 17.8847 22.0874C17.9611 22.1628 18.0481 22.2205 18.148 22.2617C18.2467 22.3017 18.3502 22.3229 18.4571 22.3229C18.5641 22.3229 18.6675 22.3017 18.7663 22.2617C18.8662 22.2205 18.9532 22.1628 19.0296 22.0874C19.1048 22.0121 19.1636 21.925 19.2047 21.8261C19.2458 21.7284 19.2658 21.6259 19.2658 21.5188C19.2658 21.4128 19.2458 21.3104 19.2047 21.2115C19.1636 21.1126 19.1048 21.0266 19.0296 20.9513C18.9532 20.8759 18.8662 20.8171 18.7663 20.777C18.6675 20.7358 18.5641 20.7158 18.4571 20.7158C18.3502 20.7158 18.2467 20.7358 18.148 20.777C18.0481 20.8171 17.9611 20.8759 17.8847 20.9513C17.8095 21.0266 17.7507 21.1126 17.7096 21.2115C17.6684 21.3104 17.6484 21.4128 17.6484 21.5188Z" fill="black"/>
</g>
</g>
</g>
<g id="Clip path group_5">
<mask id="mask4_4096_3827" style="mask-type:luminance" maskUnits="userSpaceOnUse" x="17" y="23" width="3" height="3">
<g id="0dad131e9e">
<path id="Vector_9" d="M17.6992 23.5098H19.5599V25.3182H17.6992V23.5098Z" fill="white"/>
</g>
</mask>
<g mask="url(#mask4_4096_3827)">
<g id="Group_5">
<path id="Vector_10" d="M17.6484 24.475C17.6484 24.581 17.6684 24.6834 17.7096 24.7823C17.7507 24.8812 17.8095 24.9672 17.8847 25.0425C17.9611 25.1179 18.0481 25.1767 18.148 25.2168C18.2467 25.258 18.3502 25.278 18.4571 25.278C18.5641 25.278 18.6675 25.258 18.7663 25.2168C18.8662 25.1767 18.9532 25.1179 19.0296 25.0425C19.1048 24.9672 19.1636 24.8812 19.2047 24.7823C19.2458 24.6834 19.2658 24.581 19.2658 24.475C19.2658 24.3679 19.2458 24.2655 19.2047 24.1677C19.1636 24.0688 19.1048 23.9817 19.0296 23.9064C18.9532 23.831 18.8662 23.7733 18.7663 23.7321C18.6675 23.6921 18.5641 23.6709 18.4571 23.6709C18.3502 23.6709 18.2467 23.6921 18.148 23.7321C18.0481 23.7733 17.9611 23.831 17.8847 23.9064C17.8095 23.9817 17.7507 24.0688 17.7096 24.1677C17.6684 24.2655 17.6484 24.3679 17.6484 24.475Z" fill="black"/>
</g>
</g>
</g>
<g id="Clip path group_6">
<mask id="mask5_4096_3827" style="mask-type:luminance" maskUnits="userSpaceOnUse" x="24" y="28" width="8" height="13">
<g id="7e8a00e04c">
<path id="Vector_11" d="M24.0977 28.7935H31.8954V40.0867H24.0977V28.7935Z" fill="white"/>
</g>
</mask>
<g mask="url(#mask5_4096_3827)">
<g id="Group_6">
<path id="Vector_12" d="M24.162 29.0621C25.2234 29.7886 31.526 34.3426 29.2727 38.4681C29.1141 38.7601 28.8978 39.0002 28.6227 39.1898C28.3477 39.3782 28.0444 39.4959 27.7141 39.5407C26.9325 39.6466 25.8911 39.5254 25.3221 38.3621C25.1964 38.1055 25.395 37.8088 25.683 37.8217C25.7888 37.8276 25.8946 37.8429 25.9992 37.8664C26.3001 37.9336 26.6151 37.9053 26.8949 37.777C27.2616 37.6074 27.626 37.2778 27.4226 36.6514C27.3474 36.4265 27.2263 36.2299 27.0594 36.0604C26.7491 35.7437 26.1214 35.2939 25.3315 35.7236C24.6545 36.0922 24.2784 36.8457 24.39 37.6051C24.4817 38.2408 24.8884 39.0085 26.1308 39.5713C26.1308 39.5713 28.4347 40.7168 30.34 39.2687C30.7162 38.9826 31.0041 38.627 31.2051 38.202C31.5342 37.505 31.8716 36.2641 31.2768 34.6711C30.8983 33.6574 30.2366 32.7732 29.3821 32.1056C28.2701 31.2379 26.1344 29.6591 24.3019 28.8184C24.2455 28.7925 24.1949 28.7996 24.1479 28.8408C24.1138 28.8714 24.0985 28.9091 24.1021 28.955C24.1044 28.9997 24.1244 29.0362 24.162 29.0621Z" fill="black"/>
</g>
</g>
</g>
<g id="Clip path group_7">
<mask id="mask6_4096_3827" style="mask-type:luminance" maskUnits="userSpaceOnUse" x="32" y="37" width="3" height="3">
<g id="60dbb9436f">
<path id="Vector_13" d="M32.1973 37.6758H34.0556V39.4842H32.1973V37.6758Z" fill="white"/>
</g>
</mask>
<g mask="url(#mask6_4096_3827)">
<g id="Group_7">
<path id="Vector_14" d="M34.1057 38.5329C34.1057 38.427 34.0857 38.3245 34.0445 38.2257C34.0034 38.1268 33.9446 38.0408 33.8694 37.9655C33.793 37.8901 33.706 37.8312 33.6061 37.7912C33.5074 37.75 33.4039 37.73 33.297 37.73C33.19 37.73 33.0866 37.75 32.9878 37.7912C32.8879 37.8312 32.8009 37.8901 32.7245 37.9655C32.6493 38.0408 32.5905 38.1268 32.5494 38.2257C32.5083 38.3245 32.4883 38.427 32.4883 38.5329C32.4883 38.6401 32.5083 38.7425 32.5494 38.8402C32.5905 38.9391 32.6493 39.0263 32.7245 39.1016C32.8009 39.177 32.8879 39.2347 32.9878 39.2759C33.0866 39.3159 33.19 39.3371 33.297 39.3371C33.4039 39.3371 33.5074 39.3159 33.6061 39.2759C33.706 39.2347 33.793 39.177 33.8694 39.1016C33.9446 39.0263 34.0034 38.9391 34.0445 38.8402C34.0857 38.7425 34.1057 38.6401 34.1057 38.5329Z" fill="black"/>
</g>
</g>
</g>
<g id="Clip path group_8">
<mask id="mask7_4096_3827" style="mask-type:luminance" maskUnits="userSpaceOnUse" x="32" y="34" width="3" height="3">
<g id="6e025f5803">
<path id="Vector_15" d="M32.1973 34.6616H34.0556V36.4701H32.1973V34.6616Z" fill="white"/>
</g>
</mask>
<g mask="url(#mask7_4096_3827)">
<g id="Group_8">
<path id="Vector_16" d="M34.1057 35.5776C34.1057 35.4704 34.0857 35.368 34.0445 35.2691C34.0034 35.1714 33.9446 35.0843 33.8694 35.0089C33.793 34.9336 33.706 34.8759 33.6061 34.8347C33.5074 34.7935 33.4039 34.7734 33.297 34.7734C33.19 34.7734 33.0866 34.7935 32.9878 34.8347C32.8879 34.8759 32.8009 34.9336 32.7245 35.0089C32.6493 35.0843 32.5905 35.1714 32.5494 35.2691C32.5083 35.368 32.4883 35.4704 32.4883 35.5776C32.4883 35.6835 32.5083 35.786 32.5494 35.8849C32.5905 35.9826 32.6493 36.0697 32.7245 36.1451C32.8009 36.2204 32.8879 36.2781 32.9878 36.3193C33.0866 36.3605 33.19 36.3805 33.297 36.3805C33.4039 36.3805 33.5074 36.3605 33.6061 36.3193C33.706 36.2781 33.793 36.2204 33.8694 36.1451C33.9446 36.0697 34.0034 35.9826 34.0445 35.8849C34.0857 35.786 34.1057 35.6835 34.1057 35.5776Z" fill="black"/>
</g>
</g>
</g>
<g id="Clip path group_9">
<mask id="mask8_4096_3827" style="mask-type:luminance" maskUnits="userSpaceOnUse" x="31" y="32" width="5" height="9">
<g id="f88e2cc12b">
<path id="Vector_17" d="M31.8262 32.8203H35.021V40.7192H31.8262V32.8203Z" fill="white"/>
</g>
</mask>
<g mask="url(#mask8_4096_3827)">
<g id="Group_9">
<path id="Vector_18" d="M31.8262 32.8203H35.021V40.7204H31.8262V32.8203Z" fill="white"/>
</g>
</g>
</g>
<path id="Vector_19" d="M6.96953 50.1475C7.2293 50.1475 7.47261 50.0922 7.70064 49.9791C7.92985 49.8649 8.12262 49.7107 8.27895 49.5176L8.7785 50.6561C8.54929 50.8622 8.26954 51.0235 7.94043 51.1412C7.61248 51.2566 7.28924 51.3143 6.96953 51.3143C6.42884 51.3143 5.93163 51.1871 5.47557 50.9316C5.02068 50.675 4.65983 50.3276 4.39301 49.8897C4.12619 49.4529 3.99219 48.976 3.99219 48.4603C3.99219 47.9447 4.12619 47.469 4.39301 47.0334C4.65983 46.5978 5.02068 46.2516 5.47557 45.9961C5.93163 45.7395 6.42884 45.6111 6.96953 45.6111C7.29159 45.6111 7.61719 45.6676 7.94513 45.7818C8.27542 45.8949 8.55282 46.0538 8.7785 46.2599L8.27895 47.409C8.12262 47.2112 7.93102 47.0569 7.70299 46.9463C7.47731 46.8344 7.23282 46.7779 6.96953 46.7779C6.66392 46.7779 6.38182 46.8532 6.12558 47.0051C5.86933 47.157 5.66481 47.3607 5.51436 47.6174C5.36273 47.8728 5.2875 48.1542 5.2875 48.4603C5.2875 48.7665 5.36273 49.049 5.51436 49.308C5.66481 49.5647 5.86933 49.7696 6.12558 49.9203C6.38182 50.0722 6.66392 50.1475 6.96953 50.1475ZM10.2055 46.6449C10.0656 46.6449 9.93629 46.6107 9.81522 46.5401C9.69533 46.4706 9.60012 46.3764 9.5296 46.2575C9.4626 46.1362 9.42851 46.0055 9.42851 45.8666C9.42851 45.7265 9.4626 45.597 9.5296 45.4781C9.60012 45.358 9.69533 45.2626 9.81522 45.192C9.93629 45.1225 10.0656 45.0884 10.2055 45.0884C10.3453 45.0884 10.4735 45.1225 10.5934 45.192C10.7132 45.2626 10.8085 45.358 10.8778 45.4781C10.9483 45.597 10.9824 45.7265 10.9824 45.8666C10.9824 46.0055 10.9483 46.1362 10.8778 46.2575C10.8085 46.3764 10.7132 46.4706 10.5934 46.5401C10.4735 46.6107 10.3453 46.6449 10.2055 46.6449ZM10.8531 47.1629V51.1848H9.55781V47.1629H10.8531ZM11.6289 47.1629H12.1461V45.7359H13.4402V47.1629H14.2184V48.3297H13.4402V49.5023C13.4402 49.6754 13.4508 49.8108 13.4708 49.9073C13.4931 50.0027 13.5343 50.0733 13.5942 50.1192C13.6553 50.164 13.747 50.1864 13.8693 50.1864C13.9692 50.1864 14.0855 50.1734 14.2184 50.1475V51.1848C14.082 51.2307 13.9457 51.2636 13.8081 51.2837C13.6718 51.3049 13.506 51.3143 13.3109 51.3143C12.916 51.3143 12.6233 51.1942 12.4317 50.954C12.2413 50.715 12.1461 50.4089 12.1461 50.038V48.3297H11.6289V47.1629ZM14.8648 47.1629H15.382V45.7359H16.6773V47.1629H17.4543V48.3297H16.6773V49.5023C16.6773 49.6754 16.6867 49.8108 16.7079 49.9073C16.7291 50.0027 16.7702 50.0733 16.8301 50.1192C16.8913 50.164 16.9829 50.1864 17.1052 50.1864C17.2051 50.1864 17.3215 50.1734 17.4543 50.1475V51.1848C17.3179 51.2307 17.1816 51.2636 17.0441 51.2837C16.9077 51.3049 16.742 51.3143 16.5469 51.3143C16.1531 51.3143 15.8592 51.1942 15.6676 50.954C15.4772 50.715 15.382 50.4089 15.382 50.038V48.3297H14.8648V47.1629ZM19.6535 45.4804H20.9476L21.5953 46.6449H20.8148L19.6535 45.4804ZM21.2074 51.1848V50.8445C21.0511 50.994 20.8748 51.1106 20.6773 51.1918C20.481 51.2731 20.2694 51.3143 20.0426 51.3143C19.6876 51.3143 19.362 51.2189 19.067 51.0282C18.7708 50.8363 18.5357 50.5772 18.3605 50.2499C18.1877 49.9215 18.1008 49.5635 18.1008 49.1774C18.1008 48.7865 18.1866 48.4274 18.3582 48.1001C18.531 47.7716 18.7672 47.5126 19.0646 47.3218C19.362 47.1299 19.6876 47.0334 20.0426 47.0334C20.2694 47.0334 20.481 47.0746 20.6773 47.1558C20.8748 47.2371 21.0511 47.3536 21.2074 47.5031V47.1629H22.5027V51.1848H21.2074ZM20.3 50.1475C20.4634 50.1475 20.615 50.1039 20.7537 50.018C20.8936 49.9309 21.0041 49.812 21.0852 49.6624C21.1674 49.5129 21.2074 49.3516 21.2074 49.1774C21.2074 48.9984 21.1674 48.8359 21.0852 48.6876C21.0041 48.5392 20.8936 48.4215 20.7537 48.3355C20.615 48.2484 20.4634 48.2049 20.3 48.2049C20.1354 48.2049 19.9838 48.2484 19.8439 48.3355C19.7064 48.4215 19.5971 48.5392 19.5148 48.6876C19.436 48.8359 19.3961 48.9984 19.3961 49.1774C19.3961 49.3516 19.436 49.5129 19.5148 49.6624C19.5971 49.812 19.7064 49.9309 19.8439 50.018C19.9838 50.1039 20.1354 50.1475 20.3 50.1475ZM26.1606 47.0334C26.3863 47.0334 26.5979 47.0746 26.7954 47.1558C26.9917 47.2371 27.1691 47.3536 27.3255 47.5031V45.4804H28.6196V51.1848H27.3255V50.8445C27.1691 50.994 26.9917 51.1106 26.7954 51.1918C26.5979 51.2731 26.3863 51.3143 26.1606 51.3143C25.8057 51.3143 25.4801 51.2189 25.1839 51.0282C24.8888 50.8363 24.6526 50.5772 24.4786 50.2499C24.3046 49.9215 24.2177 49.5635 24.2177 49.1774C24.2177 48.7865 24.3035 48.4274 24.4751 48.1001C24.649 47.7716 24.8841 47.5126 25.1815 47.3218C25.4789 47.1299 25.8057 47.0334 26.1606 47.0334ZM26.418 50.1475C26.5803 50.1475 26.7319 50.1039 26.8718 50.018C27.0105 49.9309 27.1209 49.812 27.2032 49.6624C27.2843 49.5129 27.3255 49.3516 27.3255 49.1774C27.3255 48.9984 27.2843 48.8359 27.2032 48.6876C27.1209 48.5392 27.0105 48.4215 26.8718 48.3355C26.7319 48.2484 26.5803 48.2049 26.418 48.2049C26.2523 48.2049 26.1007 48.2484 25.962 48.3355C25.8233 48.4215 25.714 48.5392 25.6329 48.6876C25.5529 48.8359 25.513 48.9984 25.513 49.1774C25.513 49.3516 25.5529 49.5129 25.6329 49.6624C25.714 49.812 25.8233 49.9309 25.962 50.018C26.1007 50.1039 26.2523 50.1475 26.418 50.1475ZM33.5352 49.1774C33.5352 49.281 33.5305 49.3893 33.5199 49.5023H30.7542C30.8106 49.6954 30.9246 49.852 31.0962 49.9721C31.2678 50.0886 31.4853 50.1475 31.7509 50.1475C31.9178 50.1475 32.1083 50.1263 32.3245 50.0839C32.5396 50.0392 32.7395 49.9791 32.9205 49.9026L33.2802 50.934C33.1074 51.0411 32.884 51.1318 32.6125 51.2048C32.341 51.2778 32.0413 51.3143 31.7157 51.3143C31.1973 51.3143 30.7648 51.2201 30.418 51.0317C30.0713 50.841 29.8138 50.5855 29.6458 50.2652C29.4788 49.9438 29.3954 49.5812 29.3954 49.1774C29.3954 48.7723 29.4765 48.4085 29.6375 48.0848C29.8009 47.7598 30.0419 47.5043 30.3616 47.3171C30.6825 47.1276 31.0727 47.0334 31.5323 47.0334C31.9566 47.0334 32.3187 47.1182 32.6172 47.2889C32.9169 47.4572 33.1438 47.7009 33.3001 48.0212C33.4565 48.3414 33.5352 48.7264 33.5352 49.1774ZM32.1788 48.7205C32.1788 48.624 32.1517 48.5251 32.0977 48.425C32.0436 48.3226 31.9625 48.2378 31.8555 48.1719C31.7486 48.106 31.6181 48.0718 31.463 48.0718C31.336 48.0718 31.2161 48.106 31.1056 48.1742C30.9975 48.2425 30.9117 48.3273 30.8482 48.4297C30.7859 48.5298 30.7542 48.6275 30.7542 48.7205H32.1788ZM35.6087 51.1848H34.3145V45.4804H35.6087V51.1848ZM37.9372 51.1848H36.6419V45.4804H37.9372V51.1848ZM41.8196 51.1848V50.8445C41.6633 50.994 41.4869 51.1106 41.2895 51.1918C41.092 51.2731 40.8804 51.3143 40.6547 51.3143C40.2998 51.3143 39.9742 51.2189 39.6791 51.0282C39.3829 50.8363 39.1479 50.5772 38.9727 50.2499C38.7999 49.9215 38.7129 49.5635 38.7129 49.1774C38.7129 48.7865 38.7988 48.4274 38.9704 48.1001C39.1432 47.7716 39.3794 47.5126 39.6756 47.3218C39.973 47.1299 40.2998 47.0334 40.6547 47.0334C40.8804 47.0334 41.092 47.0746 41.2895 47.1558C41.4869 47.2371 41.6633 47.3536 41.8196 47.5031V47.1629H43.1149V51.1848H41.8196ZM40.9122 50.1475C41.0755 50.1475 41.2272 50.1039 41.3659 50.018C41.5057 49.9309 41.6162 49.812 41.6973 49.6624C41.7784 49.5129 41.8196 49.3516 41.8196 49.1774C41.8196 48.9984 41.7784 48.8359 41.6973 48.6876C41.6162 48.5392 41.5057 48.4215 41.3659 48.3355C41.2272 48.2484 41.0755 48.2049 40.9122 48.2049C40.7476 48.2049 40.596 48.2484 40.4561 48.3355C40.3186 48.4215 40.2093 48.5392 40.127 48.6876C40.0471 48.8359 40.0071 48.9984 40.0071 49.1774C40.0071 49.3516 40.0471 49.5129 40.127 49.6624C40.2093 49.812 40.3186 49.9309 40.4561 50.018C40.596 50.1039 40.7476 50.1475 40.9122 50.1475ZM50.0087 51.1848L49.6162 48.0718L48.4548 51.1848H47.6767L46.5119 48.0718L46.1252 51.1848H44.8298L45.4775 45.7359H46.7728L48.0669 48.9784L49.3623 45.7359H50.6564L51.3041 51.1848H50.0087ZM53.5009 51.3143C53.2188 51.3143 52.9591 51.246 52.7216 51.1082C52.4854 50.9693 52.2961 50.7656 52.1551 50.4948C52.0164 50.2229 51.947 49.892 51.947 49.5023V47.1629H53.2388V49.3693C53.2388 49.6624 53.3023 49.8649 53.4304 49.9791C53.5573 50.0922 53.709 50.1475 53.8865 50.1475C53.9946 50.1475 54.1086 50.1204 54.2273 50.0663C54.3484 50.0098 54.4507 49.9132 54.5365 49.7778C54.6223 49.6412 54.6658 49.4623 54.6658 49.2386V47.1629H55.9587V51.1848H54.6658V50.7962C54.5306 50.9611 54.3602 51.0894 54.1568 51.1789C53.9523 51.2695 53.7337 51.3143 53.5009 51.3143ZM58.8256 48.5498C59.2605 48.5969 59.6084 48.6758 59.8682 48.7841C60.1303 48.8913 60.3207 49.0361 60.4394 49.2162C60.5593 49.3952 60.6204 49.6189 60.6204 49.8873C60.6204 50.1699 60.5464 50.4171 60.3983 50.6302C60.2502 50.8433 60.0233 51.0105 59.7177 51.133C59.4121 51.2542 59.0278 51.3143 58.5635 51.3143C58.1873 51.3143 57.8406 51.266 57.5209 51.1695C57.2035 51.0717 56.9414 50.954 56.7357 50.8139L57.0824 49.7566C57.2423 49.8673 57.4398 49.9603 57.6737 50.0357C57.9087 50.1098 58.1415 50.164 58.3742 50.1958C58.507 50.2064 58.6281 50.2111 58.7362 50.2111C59.1288 50.2111 59.3251 50.144 59.3251 50.0074C59.3251 49.9474 59.2993 49.9026 59.2464 49.872C59.1958 49.8414 59.1159 49.8167 59.0089 49.7978C58.9043 49.7778 58.7257 49.7543 58.4741 49.726C57.8523 49.6471 57.428 49.4811 57.2023 49.2315C56.9766 48.9796 56.8638 48.7017 56.8638 48.3968C56.8638 47.98 57.0201 47.648 57.3328 47.4031C57.6455 47.157 58.1227 47.0334 58.7668 47.0334C59.036 47.0369 59.3087 47.0663 59.5849 47.1229C59.8635 47.177 60.1033 47.2583 60.3019 47.3678L60.0034 48.4144C59.827 48.3297 59.6296 48.259 59.4121 48.2025C59.1947 48.1448 58.9866 48.1154 58.788 48.1154C58.5823 48.1154 58.4248 48.126 58.3166 48.146C58.2085 48.1672 58.1556 48.2119 58.1556 48.2814C58.1556 48.3414 58.1861 48.3885 58.2473 48.4215C58.3084 48.4545 58.3719 48.4768 58.4353 48.4886C58.5 48.5004 58.6305 48.5204 58.8256 48.5498ZM62.0404 46.6449C61.9017 46.6449 61.7712 46.6107 61.6513 46.5401C61.5302 46.4706 61.435 46.3764 61.3657 46.2575C61.2975 46.1362 61.2634 46.0055 61.2634 45.8666C61.2634 45.7265 61.2975 45.597 61.3657 45.4781C61.435 45.358 61.5302 45.2626 61.6513 45.192C61.7712 45.1225 61.9017 45.0884 62.0404 45.0884C62.1802 45.0884 62.3095 45.1225 62.4282 45.192C62.5493 45.2626 62.6445 45.358 62.7139 45.4781C62.7832 45.597 62.8185 45.7265 62.8185 45.8666C62.8185 46.0055 62.7832 46.1362 62.7139 46.2575C62.6445 46.3764 62.5493 46.4706 62.4282 46.5401C62.3095 46.6107 62.1802 46.6449 62.0404 46.6449ZM62.688 47.1629V51.1848H61.3939V47.1629H62.688ZM67.2181 50.8198C67.0453 50.9858 66.8184 51.1106 66.5399 51.1918C66.2613 51.2731 65.9792 51.3143 65.6936 51.3143C65.2387 51.3143 64.8426 51.2201 64.5064 51.0317C64.1702 50.841 63.9116 50.5831 63.7318 50.2605C63.5531 49.9356 63.4638 49.5741 63.4638 49.1774C63.4638 48.7794 63.5543 48.418 63.7341 48.093C63.9163 47.7657 64.1761 47.5079 64.5134 47.3195C64.852 47.1287 65.2457 47.0334 65.6936 47.0334C65.9792 47.0334 66.2578 47.0746 66.5305 47.1558C66.8032 47.2371 67.0324 47.3619 67.2181 47.5279L66.7491 48.5757C66.6163 48.4556 66.4658 48.365 66.2977 48.3026C66.132 48.2378 65.958 48.2049 65.7782 48.2049C65.589 48.2049 65.4173 48.2484 65.2634 48.3355C65.1082 48.4215 64.986 48.5392 64.8943 48.6876C64.8038 48.8359 64.7591 48.9984 64.7591 49.1774C64.7591 49.3551 64.8038 49.5176 64.8943 49.6648C64.986 49.8131 65.1082 49.9309 65.2634 50.018C65.4173 50.1039 65.589 50.1475 65.7782 50.1475C65.9545 50.1475 66.1261 50.1169 66.293 50.0533C66.4611 49.9886 66.6127 49.8979 66.7491 49.7825L67.2181 50.8198ZM70.8407 51.1848V50.8445C70.6844 50.994 70.5069 51.1106 70.3106 51.1918C70.1131 51.2731 69.9016 51.3143 69.6759 51.3143C69.3209 51.3143 68.9953 51.2189 68.6991 51.0282C68.4041 50.8363 68.169 50.5772 67.9939 50.2499C67.8199 49.9215 67.7329 49.5635 67.7329 49.1774C67.7329 48.7865 67.8187 48.4274 67.9903 48.1001C68.1643 47.7716 68.3994 47.5126 68.6968 47.3218C68.9941 47.1299 69.3209 47.0334 69.6759 47.0334C69.9016 47.0334 70.1131 47.0746 70.3106 47.1558C70.5069 47.2371 70.6844 47.3536 70.8407 47.5031V47.1629H72.1349V51.1848H70.8407ZM69.9333 50.1475C70.0967 50.1475 70.2471 50.1039 70.387 50.018C70.5257 49.9309 70.6362 49.812 70.7185 49.6624C70.7996 49.5129 70.8407 49.3516 70.8407 49.1774C70.8407 48.9984 70.7996 48.8359 70.7185 48.6876C70.6362 48.5392 70.5257 48.4215 70.387 48.3355C70.2471 48.2484 70.0967 48.2049 69.9333 48.2049C69.7688 48.2049 69.6159 48.2484 69.4772 48.3355C69.3397 48.4215 69.2292 48.5392 69.1481 48.6876C69.0682 48.8359 69.0282 48.9984 69.0282 49.1774C69.0282 49.3516 69.0682 49.5129 69.1481 49.6624C69.2292 49.812 69.3397 49.9309 69.4772 50.018C69.6159 50.1039 69.7688 50.1475 69.9333 50.1475Z" stroke="white" stroke-width="3.46991"/>
<g id="Group_10">
<g id="Group_11">
<g id="Group_12">
<path id="Vector_20" d="M6.96756 50.148C7.22733 50.148 7.47182 50.0915 7.70102 49.9785C7.92905 49.8654 8.12182 49.7124 8.27933 49.5169L8.77771 50.6566C8.5485 50.8615 8.26993 51.0228 7.94081 51.1417C7.61169 51.2571 7.28727 51.3159 6.96756 51.3159C6.42804 51.3159 5.92966 51.1888 5.47242 50.9345C5.01753 50.6778 4.65668 50.3305 4.39104 49.8937C4.12774 49.4545 3.99609 48.9777 3.99609 48.462C3.99609 47.944 4.12774 47.4683 4.39104 47.035C4.65668 46.5994 5.01753 46.2533 5.47242 45.999C5.92966 45.7423 6.42804 45.6128 6.96756 45.6128C7.28962 45.6128 7.61639 45.6693 7.94551 45.7823C8.27463 45.8954 8.55203 46.0543 8.77771 46.258L8.27933 47.4118C8.12182 47.2117 7.93141 47.0562 7.70572 46.9456C7.48004 46.8325 7.2332 46.776 6.96756 46.776C6.66313 46.776 6.3822 46.8537 6.12596 47.0068C5.86854 47.1575 5.66519 47.3624 5.51474 47.619C5.36428 47.8733 5.28906 48.1547 5.28906 48.462C5.28906 48.7669 5.36428 49.0495 5.51474 49.3097C5.66519 49.5676 5.86854 49.7712 6.12596 49.9219C6.3822 50.0726 6.66313 50.148 6.96756 50.148Z" fill="black"/>
</g>
</g>
</g>
<g id="Group_13">
<g id="Group_14">
<g id="Group_15">
<path id="Vector_21" d="M10.2063 46.6492C10.0652 46.6492 9.93474 46.615 9.81602 46.5456C9.69613 46.4737 9.60092 46.3784 9.52922 46.2583C9.45987 46.1394 9.42578 46.0087 9.42578 45.8674C9.42578 45.7296 9.45987 45.6013 9.52922 45.4812C9.60092 45.3588 9.69613 45.2634 9.81602 45.1939C9.93474 45.1257 10.0652 45.0903 10.2063 45.0903C10.3438 45.0903 10.4719 45.1257 10.5918 45.1939C10.714 45.2634 10.8093 45.3588 10.8786 45.4812C10.9468 45.6013 10.982 45.7296 10.982 45.8674C10.982 46.0087 10.9468 46.1394 10.8786 46.2583C10.8093 46.3784 10.714 46.4737 10.5918 46.5456C10.4719 46.615 10.3438 46.6492 10.2063 46.6492ZM10.8504 47.1625V51.1844H9.55743V47.1625H10.8504Z" fill="black"/>
</g>
</g>
</g>
<g id="Group_16">
<g id="Group_17">
<g id="Group_18">
<path id="Vector_22" d="M11.6309 47.1623H12.1433V45.7354H13.441V47.1623H14.2168V48.3303H13.441V49.5029C13.441 49.676 13.4504 49.8114 13.4692 49.9079C13.4904 50.0021 13.5315 50.0728 13.5915 50.1199C13.6538 50.1646 13.7466 50.1858 13.8689 50.1858C13.9688 50.1858 14.0851 50.174 14.2168 50.1481V51.1842C14.0816 51.2277 13.9453 51.2607 13.8077 51.2831C13.669 51.3043 13.5033 51.3161 13.3094 51.3161C12.9144 51.3161 12.6206 51.196 12.4301 50.9581C12.2386 50.7168 12.1433 50.4107 12.1433 50.0398V48.3303H11.6309V47.1623Z" fill="black"/>
</g>
</g>
</g>
<g id="Group_19">
<g id="Group_20">
<g id="Group_21">
<path id="Vector_23" d="M14.8672 47.1623H15.3797V45.7354H16.6773V47.1623H17.4531V48.3303H16.6773V49.5029C16.6773 49.676 16.6867 49.8114 16.7055 49.9079C16.7267 50.0021 16.7678 50.0728 16.8278 50.1199C16.8901 50.1646 16.9829 50.1858 17.1052 50.1858C17.2051 50.1858 17.3215 50.174 17.4531 50.1481V51.1842C17.3179 51.2277 17.1816 51.2607 17.0441 51.2831C16.9054 51.3043 16.7396 51.3161 16.5457 51.3161C16.1507 51.3161 15.8569 51.196 15.6665 50.9581C15.4749 50.7168 15.3797 50.4107 15.3797 50.0398V48.3303H14.8672V47.1623Z" fill="black"/>
</g>
</g>
</g>
<g id="Group_22">
<g id="Group_23">
<g id="Group_24">
<path id="Vector_24" d="M19.6504 45.481H20.9433L21.5922 46.6489H20.8164L19.6504 45.481ZM21.2066 51.1841V50.845C21.0491 50.9957 20.8728 51.1123 20.6753 51.1935C20.4802 51.2748 20.2686 51.316 20.0406 51.316C19.6856 51.316 19.3612 51.2194 19.0674 51.0287C18.7723 50.838 18.5372 50.5789 18.3621 50.2516C18.1893 49.922 18.1035 49.5641 18.1035 49.1779C18.1035 48.7858 18.1881 48.4267 18.3574 48.0994C18.529 47.7733 18.7641 47.5143 19.0627 47.3224C19.36 47.1316 19.6856 47.0351 20.0406 47.0351C20.2686 47.0351 20.4802 47.0763 20.6753 47.1575C20.8728 47.2399 21.0491 47.3553 21.2066 47.506V47.1622H22.4996V51.1841H21.2066ZM20.2992 50.148C20.4614 50.148 20.6119 50.1056 20.7506 50.0209C20.8916 49.9337 21.0021 49.8137 21.0844 49.6629C21.1655 49.5122 21.2066 49.3509 21.2066 49.1779C21.2066 48.9989 21.1655 48.8364 21.0844 48.6881C21.0021 48.5409 20.8916 48.4232 20.7506 48.3349C20.6119 48.2478 20.4614 48.203 20.2992 48.203C20.1358 48.203 19.9842 48.2478 19.8431 48.3349C19.7044 48.4232 19.5951 48.5409 19.514 48.6881C19.4353 48.8364 19.3965 48.9989 19.3965 49.1779C19.3965 49.3509 19.4353 49.5122 19.514 49.6629C19.5951 49.8137 19.7044 49.9337 19.8431 50.0209C19.9842 50.1056 20.1358 50.148 20.2992 50.148Z" fill="black"/>
</g>
</g>
</g>
<g id="Group_25">
<g id="Group_26">
<g id="Group_27">
<path id="Vector_25" d="M26.1578 47.0351C26.3858 47.0351 26.5974 47.0763 26.7925 47.1575C26.99 47.2399 27.1663 47.3553 27.3238 47.506V45.481H28.6168V51.1841H27.3238V50.845C27.1663 50.9957 26.99 51.1123 26.7925 51.1935C26.5974 51.2748 26.3858 51.316 26.1578 51.316C25.8028 51.316 25.4784 51.2194 25.1845 51.0287C24.8895 50.838 24.6544 50.5789 24.4793 50.2516C24.3065 49.922 24.2207 49.5641 24.2207 49.1779C24.2207 48.7858 24.3053 48.4267 24.4746 48.0994C24.6462 47.7733 24.8813 47.5143 25.1798 47.3224C25.4772 47.1316 25.8028 47.0351 26.1578 47.0351ZM26.4164 50.148C26.5786 50.148 26.7291 50.1056 26.8678 50.0209C27.0088 49.9337 27.1193 49.8137 27.2016 49.6629C27.2827 49.5122 27.3238 49.3509 27.3238 49.1779C27.3238 48.9989 27.2827 48.8364 27.2016 48.6881C27.1193 48.5409 27.0088 48.4232 26.8678 48.3349C26.7291 48.2478 26.5786 48.203 26.4164 48.203C26.253 48.203 26.1014 48.2478 25.9603 48.3349C25.8216 48.4232 25.7123 48.5409 25.6312 48.6881C25.5525 48.8364 25.5137 48.9989 25.5137 49.1779C25.5137 49.3509 25.5525 49.5122 25.6312 49.6629C25.7123 49.8137 25.8216 49.9337 25.9603 50.0209C26.1014 50.1056 26.253 50.148 26.4164 50.148Z" fill="black"/>
</g>
</g>
</g>
<g id="Group_28">
<g id="Group_29">
<g id="Group_30">
<path id="Vector_26" d="M33.5359 49.178C33.5359 49.2816 33.5289 49.3899 33.5171 49.5029H30.7525C30.8089 49.6984 30.923 49.8549 31.0957 49.9739C31.2674 50.0904 31.486 50.1481 31.7493 50.1481C31.915 50.1481 32.1066 50.1269 32.3229 50.0822C32.5392 50.0386 32.7378 49.9786 32.92 49.9032L33.2773 50.9346C33.1045 51.0417 32.8824 51.1312 32.6097 51.203C32.3393 51.2784 32.0408 51.316 31.7117 51.316C31.1945 51.316 30.7619 51.2219 30.414 51.0335C30.0684 50.8427 29.8134 50.5861 29.6476 50.2658C29.4807 49.9456 29.3984 49.583 29.3984 49.178C29.3984 48.7729 29.4784 48.4091 29.6382 48.0854C29.8004 47.7628 30.0426 47.5061 30.3623 47.3177C30.682 47.1293 31.0699 47.0352 31.5283 47.0352C31.9538 47.0352 32.3158 47.1199 32.6144 47.2895C32.9153 47.4567 33.1433 47.7015 33.3008 48.0241C33.4572 48.3444 33.5359 48.7294 33.5359 49.178ZM32.1771 48.7211C32.1771 48.6246 32.1501 48.5257 32.0972 48.4244C32.0431 48.3244 31.962 48.2408 31.8527 48.1748C31.7458 48.1089 31.6153 48.0759 31.4625 48.0759C31.3332 48.0759 31.2145 48.1113 31.1051 48.1796C30.9947 48.2455 30.9089 48.3291 30.8466 48.4292C30.7831 48.5304 30.7525 48.627 30.7525 48.7211H32.1771Z" fill="black"/>
</g>
</g>
</g>
<g id="Group_31">
<g id="Group_32">
<g id="Group_33">
<path id="Vector_27" d="M35.6074 51.1841H34.3145V45.481H35.6074V51.1841Z" fill="black"/>
</g>
</g>
</g>
<g id="Group_34">
<g id="Group_35">
<g id="Group_36">
<path id="Vector_28" d="M37.9355 51.1841H36.6426V45.481H37.9355V51.1841Z" fill="black"/>
</g>
</g>
</g>
<g id="Group_37">
<g id="Group_38">
<g id="Group_39">
<path id="Vector_29" d="M41.818 51.1842V50.8451C41.6604 50.9958 41.4841 51.1124 41.2867 51.1936C41.0915 51.2748 40.88 51.316 40.6519 51.316C40.297 51.316 39.9725 51.2195 39.6787 51.0288C39.3837 50.838 39.1486 50.579 38.9734 50.2517C38.8006 49.922 38.7148 49.5641 38.7148 49.178C38.7148 48.7859 38.7995 48.4268 38.9687 48.0995C39.1403 47.7734 39.3754 47.5143 39.674 47.3224C39.9714 47.1317 40.297 47.0352 40.6519 47.0352C40.88 47.0352 41.0915 47.0764 41.2867 47.1576C41.4841 47.24 41.6604 47.3554 41.818 47.5061V47.1623H43.1109V51.1842H41.818ZM40.9105 50.1481C41.0727 50.1481 41.2232 50.1057 41.3619 50.0209C41.5029 49.9338 41.6134 49.8137 41.6957 49.663C41.7768 49.5123 41.818 49.351 41.818 49.178C41.818 48.999 41.7768 48.8365 41.6957 48.6882C41.6134 48.541 41.5029 48.4233 41.3619 48.335C41.2232 48.2478 41.0727 48.2031 40.9105 48.2031C40.7471 48.2031 40.5955 48.2478 40.4545 48.335C40.3158 48.4233 40.2065 48.541 40.1253 48.6882C40.0466 48.8365 40.0078 48.999 40.0078 49.178C40.0078 49.351 40.0466 49.5123 40.1253 49.663C40.2065 49.8137 40.3158 49.9338 40.4545 50.0209C40.5955 50.1057 40.7471 50.1481 40.9105 50.1481Z" fill="black"/>
</g>
</g>
</g>
<g id="Group_40">
<g id="Group_41">
<g id="Group_42">
<path id="Vector_30" d="M50.0086 51.1842L49.6136 48.0759L48.4523 51.1842H47.6718L46.5105 48.0759L46.125 51.1842H44.832L45.4762 45.7354H46.7691L48.0668 48.9802L49.3598 45.7354H50.6527L51.3016 51.1842H50.0086Z" fill="black"/>
</g>
</g>
</g>
<g id="Group_43">
<g id="Group_44">
<g id="Group_45">
<path id="Vector_31" d="M53.4996 51.3158C53.2175 51.3158 52.9566 51.2464 52.7191 51.1086C52.4841 50.9709 52.296 50.7672 52.1549 50.4964C52.0139 50.2233 51.9434 49.8924 51.9434 49.5027V47.1621H53.2363V49.3708C53.2363 49.6628 53.2986 49.8653 53.4244 49.9784C53.5525 50.0914 53.7065 50.1479 53.8852 50.1479C53.9909 50.1479 54.1038 50.122 54.2237 50.0678C54.3459 50.0113 54.4494 49.916 54.534 49.7806C54.6186 49.6428 54.6609 49.4627 54.6609 49.239V47.1621H55.9586V51.184H54.6609V50.7978C54.5258 50.9615 54.3565 51.0886 54.1532 51.1793C53.9486 51.2699 53.7312 51.3158 53.4996 51.3158Z" fill="black"/>
</g>
</g>
</g>
<g id="Group_46">
<g id="Group_47">
<g id="Group_48">
<path id="Vector_32" d="M58.8258 48.5516C59.2584 48.5987 59.604 48.6776 59.8649 48.7871C60.1282 48.8942 60.3186 49.0367 60.4385 49.2156C60.5572 49.3946 60.6172 49.6195 60.6172 49.8891C60.6172 50.1717 60.5431 50.4201 60.3962 50.6332C60.2481 50.8439 60.0212 51.0099 59.7144 51.1324C59.41 51.2548 59.0257 51.316 58.5625 51.316C58.1864 51.316 57.8385 51.2666 57.5188 51.1701C57.2014 51.0735 56.9416 50.9534 56.7383 50.8121L57.0815 49.7572C57.2414 49.8679 57.4388 49.9597 57.6739 50.0351C57.909 50.1104 58.1417 50.1646 58.3745 50.1952C58.5061 50.2081 58.626 50.214 58.7365 50.214C59.1279 50.214 59.3242 50.1457 59.3242 50.0068C59.3242 49.948 59.2972 49.902 59.2443 49.8702C59.1937 49.8396 59.115 49.8137 59.0092 49.7949C58.9022 49.7761 58.7236 49.7525 58.4732 49.7243C57.8491 49.6465 57.4247 49.4817 57.199 49.2298C56.9734 48.979 56.8605 48.7011 56.8605 48.3962C56.8605 47.9794 57.0169 47.6474 57.3307 47.4025C57.6434 47.1576 58.1218 47.0352 58.7647 47.0352C59.0339 47.0387 59.3066 47.0681 59.5828 47.1246C59.8614 47.1788 60.1012 47.26 60.3022 47.3695L60.0013 48.415C59.8249 48.3303 59.6275 48.2596 59.4088 48.2031C59.1926 48.1442 58.9857 48.1136 58.7882 48.1136C58.5813 48.1136 58.4227 48.1254 58.3133 48.1466C58.2064 48.169 58.1535 48.2149 58.1535 48.2832C58.1535 48.3432 58.1829 48.3903 58.2428 48.4244C58.3051 48.4562 58.3674 48.4786 58.4309 48.4904C58.4967 48.5033 58.6284 48.5233 58.8258 48.5516Z" fill="black"/>
</g>
</g>
</g>
<g id="Group_49">
<g id="Group_50">
<g id="Group_51">
<path id="Vector_33" d="M62.0422 46.6492C61.9011 46.6492 61.7707 46.615 61.652 46.5456C61.5321 46.4737 61.4369 46.3784 61.3652 46.2583C61.2958 46.1394 61.2617 46.0087 61.2617 45.8674C61.2617 45.7296 61.2958 45.6013 61.3652 45.4812C61.4369 45.3588 61.5321 45.2634 61.652 45.1939C61.7707 45.1257 61.9011 45.0903 62.0422 45.0903C62.1797 45.0903 62.3078 45.1257 62.4277 45.1939C62.55 45.2634 62.6452 45.3588 62.7145 45.4812C62.7827 45.6013 62.818 45.7296 62.818 45.8674C62.818 46.0087 62.7827 46.1394 62.7145 46.2583C62.6452 46.3784 62.55 46.4737 62.4277 46.5456C62.3078 46.615 62.1797 46.6492 62.0422 46.6492ZM62.6863 47.1625V51.1844H61.3934V47.1625H62.6863Z" fill="black"/>
</g>
</g>
</g>
<g id="Group_52">
<g id="Group_53">
<g id="Group_54">
<path id="Vector_34" d="M67.2187 50.8168C67.0424 50.9864 66.8156 51.1124 66.537 51.1936C66.2572 51.2748 65.9751 51.316 65.6907 51.316C65.2358 51.316 64.8409 51.2219 64.5059 51.0335C64.1697 50.8427 63.9135 50.5849 63.7348 50.2611C63.5561 49.935 63.4668 49.5736 63.4668 49.178C63.4668 48.78 63.5561 48.4186 63.7348 48.0948C63.9158 47.7687 64.1744 47.5108 64.5106 47.3224C64.8491 47.1317 65.2417 47.0352 65.6907 47.0352C65.9751 47.0352 66.2549 47.0764 66.5276 47.1576C66.8026 47.24 67.033 47.3636 67.2187 47.5296L66.7486 48.5751C66.6169 48.4562 66.4665 48.3656 66.2972 48.302C66.1303 48.2361 65.9563 48.2031 65.7753 48.2031C65.5873 48.2031 65.4156 48.2478 65.2628 48.335C65.1089 48.4233 64.9866 48.541 64.8961 48.6882C64.8044 48.8365 64.7598 48.999 64.7598 49.178C64.7598 49.3546 64.8044 49.517 64.8961 49.6677C64.9866 49.8161 65.1089 49.9338 65.2628 50.0209C65.4156 50.1057 65.5873 50.1481 65.7753 50.1481C65.954 50.1481 66.1256 50.1175 66.2925 50.0539C66.4582 49.988 66.6099 49.8985 66.7486 49.7855L67.2187 50.8168Z" fill="black"/>
</g>
</g>
</g>
<g id="Group_55">
<g id="Group_56">
<g id="Group_57">
<path id="Vector_35" d="M70.8394 51.1842V50.8451C70.6819 50.9958 70.5056 51.1124 70.3082 51.1936C70.113 51.2748 69.9015 51.316 69.6734 51.316C69.3184 51.316 68.994 51.2195 68.7002 51.0288C68.4051 50.838 68.1701 50.579 67.9949 50.2517C67.8221 49.922 67.7363 49.5641 67.7363 49.178C67.7363 48.7859 67.821 48.4268 67.9902 48.0995C68.1618 47.7734 68.3969 47.5143 68.6955 47.3224C68.9929 47.1317 69.3184 47.0352 69.6734 47.0352C69.9015 47.0352 70.113 47.0764 70.3082 47.1576C70.5056 47.24 70.6819 47.3554 70.8394 47.5061V47.1623H72.1324V51.1842H70.8394ZM69.932 50.1481C70.0942 50.1481 70.2447 50.1057 70.3834 50.0209C70.5244 49.9338 70.6349 49.8137 70.7172 49.663C70.7983 49.5123 70.8394 49.351 70.8394 49.178C70.8394 48.999 70.7983 48.8365 70.7172 48.6882C70.6349 48.541 70.5244 48.4233 70.3834 48.335C70.2447 48.2478 70.0942 48.2031 69.932 48.2031C69.7686 48.2031 69.617 48.2478 69.476 48.335C69.3373 48.4233 69.2279 48.541 69.1468 48.6882C69.0681 48.8365 69.0293 48.999 69.0293 49.178C69.0293 49.351 69.0681 49.5123 69.1468 49.663C69.2279 49.8137 69.3373 49.9338 69.476 50.0209C69.617 50.1057 69.7686 50.1481 69.932 50.1481Z" fill="black"/>
</g>
</g>
</g>
<g id="Group_58">
<g id="Group_59">
<g id="Group_60">
<path id="Vector_36" d="M40.8981 33.6836C40.9357 33.6342 40.9803 33.6083 41.0344 33.6083C41.0967 33.6083 41.1531 33.6342 41.2037 33.6836C41.2284 33.7095 41.2472 33.7543 41.2601 33.8202C41.2718 33.8838 41.253 33.9403 41.2037 33.9898L41.1284 34.0463C41.1026 34.0839 41.0638 34.1299 41.0109 34.1828C40.9604 34.2335 40.9039 34.29 40.8416 34.3524L39.9859 35.3649C39.8696 35.5191 39.7473 35.6593 39.6192 35.7841V35.7652L39.3747 36.0525H39.3935C39.3301 36.1408 39.2537 36.2303 39.1631 36.3209C39.075 36.4081 38.9857 36.4975 38.8951 36.5894L38.4955 37.0273C38.3039 37.2181 38.0935 37.41 37.8655 37.6019L37.8843 37.5784L37.715 37.7149C37.6269 37.7773 37.5469 37.8374 37.4752 37.8939C37.4059 37.9528 37.3459 37.9951 37.2966 38.021C37.246 38.0328 37.1814 38.0493 37.1038 38.0681C37.0286 38.087 36.9534 38.0964 36.8781 38.0964C36.8499 38.0964 36.817 38.0964 36.7794 38.0964C36.7418 38.0964 36.71 38.0893 36.6854 38.0776C36.4938 38.0399 36.3233 37.9316 36.1729 37.7526C36.1564 37.7267 36.1306 37.6914 36.0929 37.6443C36.0553 37.5995 36.0236 37.5595 35.9989 37.5218L35.8861 37.3711L35.7121 36.8531V36.8908L35.5993 36.434C35.5746 36.2303 35.5522 36.0231 35.5334 35.8123C35.5146 35.6027 35.5052 35.3967 35.5052 35.1954C35.4935 34.8257 35.4958 34.4725 35.5146 34.1357C35.5334 33.7967 35.5617 33.4882 35.5993 33.208L35.7121 32.4262C35.7121 32.3862 35.718 32.3403 35.7309 32.2896C35.7427 32.2402 35.7497 32.1955 35.7497 32.1578L35.8061 31.8328C35.8343 31.6798 35.8637 31.5526 35.8955 31.4514C35.926 31.3478 35.9425 31.2959 35.9425 31.2959C35.9919 31.1205 36.0859 30.9828 36.2246 30.8815C36.3656 30.7779 36.5184 30.7261 36.6854 30.7261C36.9016 30.7261 37.0779 30.8003 37.2166 30.9474C37.3577 31.0923 37.4282 31.2724 37.4282 31.489C37.4282 31.489 37.4282 31.5385 37.4282 31.635C37.4282 31.7292 37.4212 31.8517 37.4094 32.0024V32.252C37.4094 32.3026 37.4059 32.3638 37.4 32.4356C37.393 32.5051 37.3906 32.571 37.3906 32.6334L37.353 33.3587L37.2966 34.0274C37.2836 34.2193 37.2707 34.4112 37.259 34.602C37.246 34.7939 37.2331 34.9976 37.2213 35.2142C37.1931 35.5439 37.1931 35.8759 37.2213 36.2079C37.2213 36.2715 37.2237 36.3468 37.2308 36.434C37.2366 36.5246 37.246 36.6011 37.259 36.6647C37.2707 36.6894 37.2778 36.7401 37.2778 36.8154C37.2895 36.8931 37.3119 36.9708 37.3436 37.0462C37.3742 37.1215 37.4212 37.1592 37.4846 37.1592C37.5093 37.1592 37.5364 37.1521 37.5646 37.1404C37.5893 37.1145 37.6398 37.0897 37.715 37.065H37.6962L38.4203 36.547H38.4015C38.5425 36.421 38.6695 36.2997 38.7823 36.1796C38.8975 36.0572 39.0056 35.9383 39.1067 35.8217L39.7179 35.153L40.0047 34.8092C40.1176 34.6714 40.221 34.5431 40.3151 34.423C40.4114 34.3006 40.4984 34.1946 40.5736 34.1028H40.5548C40.6583 33.9898 40.7406 33.8932 40.804 33.8108C40.8663 33.726 40.8981 33.6836 40.8981 33.6836ZM36.7794 28.8141H36.6854C36.4808 28.7893 36.3151 28.6952 36.187 28.5315C36.0612 28.3655 36.0048 28.1806 36.0177 27.9758C36.0177 27.9134 36.0236 27.8475 36.0365 27.778C36.0483 27.7062 36.0553 27.6391 36.0553 27.5755C36.08 27.3471 36.1752 27.1787 36.3421 27.0716C36.5079 26.9621 36.6924 26.9067 36.8969 26.9067C37.1132 26.9197 37.2836 27.0056 37.4094 27.1658C37.5375 27.3235 37.5893 27.5166 37.5646 27.745C37.5646 27.9993 37.5129 28.2419 37.4094 28.4703C37.3083 28.6999 37.0991 28.8141 36.7794 28.8141Z" fill="black"/>
</g>
</g>
</g>
<g id="Group_61">
<g id="Group_62">
<g id="Group_63">
<path id="Vector_37" d="M49.6476 33.7212H49.6288C49.6817 33.7471 49.7087 33.7953 49.7087 33.8672C49.7087 33.9366 49.6876 33.9837 49.6476 34.0084L49.4784 34.2015C49.4278 34.2522 49.3514 34.3263 49.248 34.4229C49.1469 34.5171 49.0458 34.6018 48.9424 34.6772C48.8413 34.7808 48.712 34.9068 48.5521 35.0539C48.3946 35.1988 48.2465 35.3212 48.1055 35.4213V35.4024C47.9139 35.5696 47.7164 35.7297 47.513 35.8828C47.3085 36.0335 47.1111 36.1677 46.9206 36.2831C46.5657 36.5245 46.1789 36.7505 45.7593 36.9613C45.3385 37.1708 44.906 37.3145 44.4617 37.3898C44.3606 37.4016 44.256 37.411 44.1466 37.4181C44.0397 37.424 43.9362 37.4275 43.8363 37.4275C43.7705 37.4275 43.7023 37.4275 43.6342 37.4275C43.5648 37.4275 43.4978 37.4204 43.432 37.4087C43.2686 37.3957 43.0982 37.3592 42.9195 37.3003C42.7408 37.2438 42.5622 37.1779 42.3835 37.1025C42.2201 37.0013 42.052 36.893 41.8804 36.7776C41.7076 36.6646 41.5525 36.5374 41.415 36.3961C41.2481 36.2172 41.1164 36.0276 41.02 35.8263C40.926 35.6226 40.8543 35.4189 40.8037 35.2141C40.7285 34.8067 40.7097 34.3981 40.7473 33.9896C40.8108 33.4056 40.9612 32.844 41.2034 32.3036C41.4443 31.7609 41.7629 31.2722 42.1578 30.839C42.4117 30.5976 42.6809 30.401 42.9665 30.2503C43.251 30.0972 43.573 30.0195 43.9304 30.0195C44.2466 30.0195 44.5251 30.089 44.7673 30.2267L44.7485 30.2079L44.9788 30.3256H44.9412C44.953 30.3386 44.9718 30.3445 44.9976 30.3445C45.1105 30.4081 45.181 30.4705 45.2092 30.5329C45.2715 30.5835 45.3279 30.6482 45.3785 30.7259C45.4279 30.8013 45.4596 30.8837 45.4725 30.9708C45.4972 31.0627 45.5101 31.1498 45.5101 31.2346C45.5101 31.317 45.4972 31.4076 45.4725 31.5077C45.4467 31.6749 45.3891 31.8185 45.2986 31.941C45.2104 32.0611 45.1105 32.1647 44.9976 32.2518L44.2736 32.6898H44.2924L42.3459 33.7588C42.333 33.7588 42.3142 33.773 42.2895 33.8012C42.2895 33.9142 42.2765 34.0226 42.2519 34.1262V34.0838C42.2389 34.251 42.2331 34.4111 42.2331 34.5642C42.2331 34.7149 42.2331 34.8679 42.2331 35.021C42.2331 35.0963 42.2331 35.1705 42.2331 35.2423C42.2331 35.3118 42.2389 35.3777 42.2519 35.4401C42.2519 35.5319 42.2577 35.5955 42.2707 35.6332C42.2707 35.6968 42.2765 35.7403 42.2895 35.7651C42.2895 35.8027 42.3012 35.8487 42.3271 35.9016C42.4423 36.2819 42.6433 36.5633 42.9289 36.7493C43.2134 36.9342 43.5542 37.0272 43.9492 37.0272C44.0244 37.0272 44.102 37.0237 44.1843 37.0178C44.2689 37.0107 44.3418 37.0013 44.4052 36.9895C45.2703 36.8106 46.0461 36.4821 46.7326 36.0052C47.419 35.5284 48.0737 34.9962 48.6979 34.4087L49.342 33.7588C49.382 33.6964 49.4337 33.6646 49.4972 33.6646C49.5465 33.6646 49.5971 33.6835 49.6476 33.7212ZM42.8819 31.3759C42.7526 31.6184 42.6398 31.9339 42.5434 32.3225C42.4493 32.7086 42.3765 33.0418 42.3271 33.3209L42.5387 33.2455L43.5683 32.6898C43.7188 32.6274 43.8951 32.5273 44.0996 32.3884C44.303 32.273 44.5134 32.1317 44.7297 31.9645C44.8825 31.8515 45.0035 31.662 45.0917 31.3947C45.1034 31.2911 45.094 31.1863 45.0635 31.0792C45.0317 30.9697 44.9788 30.8767 44.9036 30.8013L44.7673 30.6883L44.598 30.6271C44.457 30.5776 44.3171 30.5517 44.1796 30.5517C44.0385 30.5517 43.9092 30.5647 43.794 30.5894C43.6812 30.6153 43.5601 30.6671 43.432 30.7448C43.2157 30.9237 43.0323 31.1345 42.8819 31.3759Z" fill="black"/>
</g>
</g>
</g>
<g id="Group_64">
<g id="Group_65">
<g id="Group_66">
<path id="Vector_38" d="M60.0031 33.759C60.0407 33.8378 60.0008 33.9273 59.8856 34.0274L59.8668 34.0462C59.6376 34.3418 59.4083 34.7056 59.1803 35.1388C58.9511 35.5697 58.729 36.0289 58.5127 36.5187C58.2964 37.0108 58.1048 37.4818 57.9391 37.9315C57.7757 38.3836 57.6429 38.7757 57.5394 39.1089C57.5394 39.1207 57.5359 39.1372 57.53 39.156C57.523 39.1748 57.5206 39.1842 57.5206 39.1842C57.4701 39.3126 57.4231 39.4492 57.3796 39.594C57.3349 39.7411 57.2679 39.9236 57.1774 40.1403L57.1962 40.1214C57.1457 40.2839 57.0458 40.4805 56.8953 40.7101C56.8671 40.7501 56.8248 40.7866 56.7684 40.8184C56.7119 40.849 56.652 40.8844 56.5897 40.922H56.6085C56.4792 40.9844 56.3652 41.0162 56.2653 41.0162C56.2394 41.0162 56.2136 41.0127 56.1853 41.0068C56.1595 40.9997 56.1348 40.9974 56.1101 40.9974C56.009 40.9715 55.9009 40.9409 55.7857 40.9032C55.7728 40.9032 55.7669 40.8997 55.7669 40.8938C55.7669 40.8867 55.754 40.8844 55.7293 40.8844L55.3672 40.7101C55.2791 40.6465 55.1898 40.5735 55.0993 40.4888C55.0111 40.4064 54.93 40.3216 54.8548 40.2345L54.7983 40.1591C54.7701 40.1332 54.756 40.1085 54.756 40.0838L54.7184 40.0272L54.7372 40.0838L54.4927 39.6222C54.1472 38.9346 53.9238 38.2023 53.8204 37.4276C53.7193 36.6517 53.6699 35.8817 53.6699 35.1153C53.6699 34.9399 53.6723 34.7621 53.6793 34.5831C53.6852 34.4042 53.6887 34.2252 53.6887 34.0462C53.7005 33.8555 53.7099 33.6624 53.717 33.467C53.7228 33.2692 53.7264 33.0749 53.7264 32.883V31.7951C53.6887 31.7951 53.5877 31.96 53.4255 32.2896C53.2844 32.5192 53.1551 32.7453 53.0399 32.9678C52.9271 33.1915 52.8201 33.4105 52.7202 33.6271L52.2594 34.6396L51.6905 35.8405L51.3661 36.627L51.0041 37.4276C51.0041 37.6184 50.9242 37.7738 50.7643 37.8939C50.6044 38.0163 50.4352 38.0775 50.2565 38.0775C49.9392 38.0775 49.7252 37.9504 49.6124 37.6961C49.6124 37.6961 49.6006 37.6796 49.5795 37.649C49.5607 37.6172 49.5254 37.5618 49.476 37.4841C49.4502 37.4582 49.4384 37.4206 49.4384 37.3711C49.4384 37.3452 49.4137 37.2875 49.3632 37.1969L49.3256 37.0462C49.3256 37.0332 49.3256 37.0144 49.3256 36.9896C49.3256 36.9637 49.3138 36.9308 49.288 36.8907L49.2504 36.7589L49.2692 36.7777C49.2292 36.7141 49.208 36.6647 49.208 36.627C49.1963 36.5893 49.1892 36.5246 49.1892 36.4339C49.1892 36.3468 49.1775 36.2503 49.1516 36.1467C49.1516 36.1219 49.1493 36.0901 49.1422 36.0525C49.1363 36.0148 49.1328 35.9842 49.1328 35.9583V35.1765C49.1328 35.1106 49.1363 35.0564 49.1422 35.0117C49.1493 34.9681 49.1516 34.921 49.1516 34.8704V34.5643C49.1645 34.5019 49.174 34.4418 49.1798 34.3853C49.1869 34.3264 49.1892 34.277 49.1892 34.2393C49.2022 34.1899 49.208 34.1522 49.208 34.1263C49.208 34.098 49.208 34.0839 49.208 34.0839C49.2362 33.8673 49.335 33.7024 49.5042 33.5894C49.6759 33.474 49.8639 33.4152 50.0684 33.4152C50.2718 33.4317 50.4399 33.5258 50.5715 33.6977C50.7055 33.8673 50.7608 34.0674 50.7361 34.2958C50.7361 34.2958 50.7326 34.3053 50.7267 34.3241C50.7196 34.3429 50.7173 34.3783 50.7173 34.4277C50.6914 34.5313 50.6797 34.6279 50.6797 34.715V34.9457C50.6797 34.9834 50.6761 35.0246 50.6703 35.0682C50.6632 35.1129 50.6609 35.1612 50.6609 35.2142V35.8829C50.6609 35.8959 50.6632 35.9147 50.6703 35.9394C50.6761 35.9653 50.6797 35.9901 50.6797 36.0148C50.6797 36.0407 50.6914 36.1043 50.7173 36.2079C50.7173 36.2585 50.7196 36.2997 50.7267 36.3303C50.7326 36.3621 50.742 36.4021 50.7549 36.4528C50.7549 36.5022 50.7572 36.5399 50.7643 36.5658C50.7702 36.594 50.7796 36.62 50.7925 36.6459L50.8301 36.7589L51.0041 36.4339L51.7846 34.6773L52.6967 32.8642C52.7625 32.7488 52.833 32.6275 52.9083 32.5015C52.9835 32.3732 53.047 32.246 53.101 32.1201L53.2515 31.8328L53.2327 31.8516L53.3267 31.6585C53.3761 31.5961 53.4137 31.5432 53.4396 31.4984C53.4678 31.4549 53.4877 31.4137 53.5007 31.376C53.5254 31.3359 53.5442 31.3053 53.5571 31.2865C53.5689 31.2677 53.5818 31.2394 53.5947 31.2017C53.5947 31.1641 53.6194 31.1205 53.6699 31.0699L53.6323 31.1452C53.657 31.1205 53.6699 31.1017 53.6699 31.0887C53.6699 31.051 53.6817 31.0181 53.7076 30.9898L53.7687 30.8956C53.7804 30.8838 53.7992 30.865 53.8251 30.8391C53.8498 30.8144 53.8874 30.7955 53.9379 30.7826L54.032 30.7449C54.0437 30.7449 54.0567 30.7426 54.0696 30.7355C54.0813 30.7296 54.1025 30.7261 54.1307 30.7261H54.3188C54.394 30.739 54.4528 30.7579 54.4974 30.7826C54.5445 30.8085 54.5868 30.8332 54.6244 30.8579C54.7243 30.9462 54.803 31.0228 54.8595 31.0887C54.9182 31.1523 54.9676 31.2088 55.0052 31.2582L55.1792 31.6585V31.6209C55.2039 31.675 55.2191 31.7421 55.2262 31.8234C55.2321 31.9058 55.2415 31.9788 55.2544 32.0447C55.2544 32.0577 55.2662 32.1142 55.292 32.2143L55.3484 32.8642L55.4049 34.0462C55.4166 34.4418 55.4331 34.8315 55.4519 35.2142C55.4707 35.5945 55.4871 35.9818 55.5036 36.3774C55.5283 36.8107 55.5659 37.2534 55.6164 37.7055C55.6658 38.1576 55.7681 38.5873 55.922 38.9959L55.9409 39.0901C55.9409 39.1277 55.9597 39.1654 55.9973 39.2031L56.1101 39.4338C56.1759 39.5339 56.2206 39.6246 56.2465 39.707C56.2711 39.7918 56.2958 39.8648 56.3217 39.9283C56.3464 39.9943 56.3687 40.0614 56.3875 40.1308C56.4063 40.1991 56.4345 40.2651 56.4721 40.3286C56.4721 40.3404 56.4745 40.3498 56.4815 40.3569C56.4874 40.3628 56.491 40.3663 56.491 40.3663C56.5192 40.3816 56.5521 40.3687 56.5897 40.3286C56.652 40.291 56.699 40.2403 56.7307 40.1779C56.7613 40.1144 56.7966 40.0437 56.8342 39.966C56.8741 39.9024 56.9165 39.8035 56.9611 39.6693C57.0046 39.5375 57.0458 39.4127 57.0834 39.2973L57.1586 39.0335C57.2867 38.5744 57.456 38.0834 57.6664 37.5595C57.8756 37.0379 58.1013 36.5293 58.3434 36.0336C58.5844 35.538 58.8253 35.0823 59.0675 34.6679C59.3084 34.2535 59.5247 33.9191 59.7163 33.6648C59.7281 33.653 59.7539 33.6459 59.7915 33.6459C59.8914 33.6459 59.962 33.6836 60.0031 33.759Z" fill="black"/>
</g>
</g>
</g>
<g id="Group_67">
<g id="Group_68">
<g id="Group_69">
<path id="Vector_39" d="M70.6583 33.6458L70.6959 33.6646C70.7711 33.7435 70.7711 33.8459 70.6959 33.9707L70.3526 34.371V34.3522L69.0738 35.977L68.1993 37.0272C68.07 37.1649 67.9419 37.305 67.8137 37.4463C67.688 37.5876 67.5551 37.7265 67.4141 37.8655L66.596 38.553H66.6148L66.5208 38.6284C66.4949 38.6566 66.4644 38.6708 66.4267 38.6708L66.3656 38.7085L66.4267 38.6896L65.8343 38.9157C65.7967 38.9274 65.7568 38.9345 65.7168 38.9345C65.6792 38.9345 65.6416 38.9345 65.6039 38.9345C65.5158 38.9345 65.4206 38.9216 65.3171 38.8968C65.2161 38.8709 65.122 38.8333 65.035 38.7838C64.8058 38.6802 64.6084 38.5071 64.4426 38.2658C64.2757 38.0232 64.1676 37.7819 64.1182 37.5405C64.0924 37.4652 64.0712 37.3663 64.0524 37.2438C64.0336 37.1237 64.0171 37.0201 64.0054 36.933C63.9924 36.8294 63.983 36.7258 63.9772 36.6222C63.9701 36.5209 63.9678 36.4267 63.9678 36.3396C63.9678 35.9946 63.983 35.6379 64.0148 35.2706C64.0453 34.9009 64.1053 34.55 64.1934 34.2203L63.8126 34.6395C63.4952 34.9197 63.1708 35.1976 62.8394 35.4731C62.5102 35.7462 62.1541 35.977 61.7721 36.1653C61.7086 36.2066 61.6357 36.2454 61.5511 36.2831C61.4688 36.3208 61.3971 36.3467 61.3348 36.3584H60.8976C60.8188 36.3584 60.7671 36.3467 60.7424 36.3208C60.6542 36.296 60.5555 36.2548 60.4462 36.1983C60.3392 36.1394 60.2487 36.0841 60.1735 36.0335C60.0947 35.9711 60.0277 35.8957 59.9713 35.8074C59.9149 35.7168 59.8608 35.6273 59.8115 35.539V35.5578C59.7198 35.4048 59.6493 35.2376 59.5999 35.0586C59.5505 34.8797 59.5188 34.7089 59.5059 34.5453V34.0273L59.5811 33.5139C59.6563 33.2066 59.7833 32.9005 59.9619 32.5956C60.2405 32.0246 60.6178 31.5407 61.095 31.1451C61.5711 30.7495 62.1118 30.4504 62.7171 30.2456C63.3213 30.0419 63.9278 29.9395 64.5367 29.9395C64.5484 29.9395 64.5578 29.9442 64.5649 29.9536C64.5708 29.9606 64.5802 29.963 64.5931 29.963L64.673 29.9818C64.7106 29.9818 64.7412 29.9948 64.767 30.0195H64.7482L64.7859 30.0572C64.7859 30.0454 64.7976 30.0384 64.8235 30.0384L65.0538 30.1702H65.035C65.0468 30.1832 65.0727 30.1891 65.1103 30.1891C65.1855 30.2397 65.2678 30.3292 65.3595 30.4575C65.3841 30.5081 65.4088 30.5635 65.4347 30.6223C65.4594 30.6788 65.4723 30.733 65.4723 30.7824C65.5217 30.9367 65.477 31.0262 65.3359 31.0509C65.1596 31.0509 65.0727 30.9802 65.0727 30.839C65.0727 30.7895 65.0468 30.7189 64.9974 30.627L65.0162 30.6506L64.9551 30.5705L64.7294 30.4575C64.6789 30.4328 64.6213 30.4198 64.5555 30.4198L64.4802 30.401C64.0477 30.4646 63.6915 30.5788 63.413 30.7448C63.1332 30.9084 62.8276 31.1192 62.4961 31.3758C62.3833 31.4889 62.2846 31.5913 62.1999 31.6819C62.1176 31.7703 62.0459 31.8586 61.9836 31.9457C61.9049 32.0246 61.8308 32.1223 61.7627 32.2377C61.6933 32.3507 61.6134 32.4826 61.5229 32.6333C61.4594 32.7369 61.4065 32.8358 61.363 32.93C61.3184 33.0241 61.2784 33.1172 61.2408 33.2078L61.2596 33.189C61.222 33.302 61.1855 33.4139 61.1514 33.5233C61.1197 33.6305 61.0915 33.7294 61.0668 33.82V33.8766L61.0292 34.0649V34.145C61.0292 34.1709 61.0257 34.2015 61.0198 34.2392C61.0127 34.2769 61.0104 34.3086 61.0104 34.3334V34.5265C60.9975 34.6277 60.9881 34.736 60.9822 34.8514C60.9751 34.9644 60.9728 35.0728 60.9728 35.1764C60.9728 35.2517 60.9787 35.3318 60.9916 35.4165C61.0033 35.499 61.0351 35.5708 61.0856 35.6332L61.142 35.6897L61.316 35.7839L61.3536 35.8639C61.3536 35.8239 61.3407 35.7909 61.316 35.765C61.3407 35.765 61.363 35.7686 61.3818 35.7745C61.4006 35.7815 61.4159 35.7839 61.4288 35.7839C61.4665 35.7839 61.5241 35.7721 61.6028 35.7462C61.6898 35.7215 61.7627 35.6968 61.8191 35.6709C61.8779 35.6461 61.9272 35.6273 61.9648 35.6143L62.3081 35.4024H62.2893C62.4515 35.3023 62.5902 35.2117 62.703 35.1293C62.8182 35.0445 62.9028 34.9774 62.9569 34.9268C63.1602 34.7855 63.3565 34.6006 63.5446 34.371C63.648 34.2839 63.7491 34.1862 63.8502 34.0791C63.9537 33.9696 64.043 33.8707 64.1182 33.7824L64.5179 33.2832L64.4991 33.302C64.5613 33.123 64.6554 32.9865 64.7812 32.8923C64.9093 32.7981 65.0374 32.751 65.1667 32.751C65.2161 32.751 65.2807 32.7639 65.3595 32.7887C65.5593 32.877 65.7133 33.0041 65.8202 33.1701C65.9295 33.3338 65.9777 33.5045 65.966 33.6835V33.8389L65.7779 34.9833C65.765 35.0716 65.7497 35.1611 65.7309 35.2517C65.7121 35.34 65.6945 35.4354 65.6792 35.539L65.5663 36.4149C65.5663 36.4773 65.5663 36.5562 65.5663 36.6504C65.5663 36.747 65.5534 36.827 65.5287 36.8906C65.5287 36.9813 65.5287 37.0649 65.5287 37.1402C65.5287 37.2179 65.5217 37.2886 65.5099 37.3521V37.7713C65.5217 37.8337 65.5346 37.8961 65.5475 37.9596C65.5593 38.0256 65.5722 38.0703 65.5851 38.0962C65.6345 38.1963 65.7309 38.2587 65.8719 38.2846C65.8837 38.2846 65.8966 38.287 65.9096 38.294C65.9213 38.3034 65.9342 38.3081 65.9472 38.3081H66.0835C66.1329 38.3081 66.1964 38.287 66.2716 38.2469C66.3339 38.221 66.3962 38.1869 66.4597 38.1433C66.5255 38.0986 66.5831 38.0644 66.6336 38.0397H66.6148L67.1508 37.5782C67.2754 37.4652 67.407 37.3309 67.5457 37.1779C67.6868 37.0272 67.8149 36.8871 67.9313 36.7587C68.097 36.5916 68.2557 36.4149 68.4062 36.2266H68.3873L68.5989 35.9958C68.6859 35.8804 68.7705 35.765 68.8528 35.652C68.9374 35.5366 69.0232 35.4342 69.1114 35.3459L69.1913 35.2894L70.047 34.1262C70.134 34.0225 70.2128 33.9236 70.2821 33.8295C70.3538 33.7329 70.3903 33.6835 70.3903 33.6835C70.4396 33.6587 70.5102 33.6458 70.6018 33.6458C70.6136 33.6458 70.623 33.6458 70.63 33.6458C70.6359 33.6458 70.6453 33.6458 70.6583 33.6458Z" fill="black"/>
</g>
</g>
</g>
</g>
</svg>
