<svg width="25" height="18" viewBox="0 0 25 18" fill="none" xmlns="http://www.w3.org/2000/svg">
<path id="Vector" d="M22.5 0H2.5C1.125 0 0.0125 1.0125 0.0125 2.25L0 15.75C0 16.9875 1.125 18 2.5 18H22.5C23.875 18 25 16.9875 25 15.75V2.25C25 1.0125 23.875 0 22.5 0ZM22 4.78125L13.1625 9.75375C12.7625 9.97875 12.2375 9.97875 11.8375 9.75375L3 4.78125C2.87466 4.71793 2.7649 4.63237 2.67736 4.52976C2.58982 4.42715 2.52633 4.30963 2.49072 4.18429C2.45511 4.05896 2.44813 3.92843 2.4702 3.8006C2.49226 3.67276 2.54292 3.55029 2.6191 3.44059C2.69528 3.33089 2.79541 3.23624 2.91341 3.16237C3.03141 3.0885 3.16484 3.03695 3.30562 3.01084C3.4464 2.98472 3.5916 2.98459 3.73244 3.01044C3.87328 3.0363 4.00683 3.0876 4.125 3.16125L12.5 7.875L20.875 3.16125C20.9932 3.0876 21.1267 3.0363 21.2676 3.01044C21.4084 2.98459 21.5536 2.98472 21.6944 3.01084C21.8352 3.03695 21.9686 3.0885 22.0866 3.16237C22.2046 3.23624 22.3047 3.33089 22.3809 3.44059C22.4571 3.55029 22.5077 3.67276 22.5298 3.8006C22.5519 3.92843 22.5449 4.05896 22.5093 4.18429C22.4737 4.30963 22.4102 4.42715 22.3226 4.52976C22.2351 4.63237 22.1253 4.71793 22 4.78125Z" fill="white"/>
</svg>
