<svg width="25" height="24" viewBox="0 0 25 24" fill="none" xmlns="http://www.w3.org/2000/svg">
<g id="user">
<g id="Vector">
<path d="M12.6772 13.8502C8.77628 14.2033 5.80435 17.5042 5.85614 21.4262V21.6251C5.85614 22.3844 6.47085 23 7.22913 23C7.98741 23 8.60212 22.3844 8.60212 21.6251V21.3712C8.56085 18.9631 10.3354 16.9095 12.7211 16.6047C15.2394 16.3546 17.4833 18.1963 17.7331 20.7182C17.7478 20.8673 17.7553 21.017 17.7554 21.1668V21.6251C17.7554 22.3844 18.3701 23 19.1284 23C19.8867 23 20.5014 22.3844 20.5014 21.6251V21.1667C20.4969 17.1122 17.2111 13.829 13.1624 13.8335C13.0006 13.8337 12.8387 13.8392 12.6772 13.8502Z" fill="#2B1B12"/>
<path d="M13.1788 11.9996C16.2119 11.9996 18.6708 9.53727 18.6708 6.49982C18.6708 3.46237 16.2119 1 13.1788 1C10.1457 1 7.68685 3.46237 7.68685 6.49982C7.68986 9.53603 10.147 11.9966 13.1788 11.9996ZM13.1788 3.74991C14.6954 3.74991 15.9248 4.9811 15.9248 6.49982C15.9248 8.01855 14.6954 9.24973 13.1788 9.24973C11.6623 9.24973 10.4328 8.01855 10.4328 6.49982C10.4328 4.9811 11.6623 3.74991 13.1788 3.74991Z" fill="#2B1B12"/>
</g>
</g>
</svg>
