<svg width="22" height="22" viewBox="0 0 22 22" fill="none" xmlns="http://www.w3.org/2000/svg">
<path id="Vector" d="M20.2307 20.0002L15.8877 15.6572M15.8877 15.6572C16.6306 14.9143 17.2199 14.0324 17.6219 13.0618C18.0239 12.0911 18.2309 11.0508 18.2309 10.0002C18.2309 8.9496 18.024 7.90929 17.6219 6.93866C17.2199 5.96803 16.6306 5.08609 15.8877 4.34321C15.1448 3.60032 14.2629 3.01103 13.2922 2.60898C12.3216 2.20693 11.2813 2 10.2307 2C9.18007 2 8.13976 2.20693 7.16913 2.60898C6.1985 3.01103 5.31656 3.60032 4.57367 4.34321C3.07335 5.84354 2.23047 7.87842 2.23047 10.0002C2.23047 12.122 3.07335 14.1569 4.57367 15.6572C6.074 17.1575 8.10889 18.0004 10.2307 18.0004C12.3525 18.0004 14.3873 17.1575 15.8877 15.6572Z" stroke="black" stroke-width="2.5" stroke-linecap="round" stroke-linejoin="round"/>
</svg>
